<mxfile host="Electron" modified="2024-05-13T06:50:43.210Z" agent="Mozilla/5.0 (Windows NT 10.0; Win64; x64) AppleWebKit/537.36 (KHTML, like Gecko) draw.io/24.2.5 Chrome/120.0.6099.109 Electron/28.1.0 Safari/537.36" etag="Zqyb_g9ixxGg0yhIah51" version="24.2.5" type="device">
  <diagram name="第1頁" id="tqIrCBsUCkUj2RAStxQl">
    <mxGraphModel dx="1195" dy="703" grid="0" gridSize="10" guides="1" tooltips="1" connect="1" arrows="1" fold="1" page="1" pageScale="1" pageWidth="827" pageHeight="1169" math="0" shadow="0">
      <root>
        <mxCell id="0" />
        <mxCell id="1" parent="0" />
        <mxCell id="upza0JuViuWNQ2w0Z_TN-3" value="" style="edgeStyle=orthogonalEdgeStyle;rounded=0;orthogonalLoop=1;jettySize=auto;html=1;" edge="1" parent="1" source="upza0JuViuWNQ2w0Z_TN-1" target="upza0JuViuWNQ2w0Z_TN-2">
          <mxGeometry relative="1" as="geometry" />
        </mxCell>
        <mxCell id="upza0JuViuWNQ2w0Z_TN-8" style="edgeStyle=orthogonalEdgeStyle;rounded=0;orthogonalLoop=1;jettySize=auto;html=1;" edge="1" parent="1" source="upza0JuViuWNQ2w0Z_TN-1" target="upza0JuViuWNQ2w0Z_TN-7">
          <mxGeometry relative="1" as="geometry" />
        </mxCell>
        <mxCell id="upza0JuViuWNQ2w0Z_TN-1" value="題目:&amp;nbsp; 給一個Binary Tree的root，回傳 由上到下Level nodes的list放在list中。" style="rounded=1;whiteSpace=wrap;html=1;" vertex="1" parent="1">
          <mxGeometry x="134" y="31" width="512" height="60" as="geometry" />
        </mxCell>
        <mxCell id="upza0JuViuWNQ2w0Z_TN-6" style="edgeStyle=orthogonalEdgeStyle;rounded=0;orthogonalLoop=1;jettySize=auto;html=1;" edge="1" parent="1" source="upza0JuViuWNQ2w0Z_TN-2" target="upza0JuViuWNQ2w0Z_TN-5">
          <mxGeometry relative="1" as="geometry" />
        </mxCell>
        <mxCell id="upza0JuViuWNQ2w0Z_TN-2" value="BFS" style="whiteSpace=wrap;html=1;rounded=1;" vertex="1" parent="1">
          <mxGeometry x="111.5" y="163" width="120" height="60" as="geometry" />
        </mxCell>
        <mxCell id="upza0JuViuWNQ2w0Z_TN-32" style="edgeStyle=orthogonalEdgeStyle;rounded=0;orthogonalLoop=1;jettySize=auto;html=1;entryX=0.5;entryY=0;entryDx=0;entryDy=0;curved=1;exitX=0.5;exitY=1;exitDx=0;exitDy=0;" edge="1" parent="1" source="upza0JuViuWNQ2w0Z_TN-5" target="upza0JuViuWNQ2w0Z_TN-30">
          <mxGeometry relative="1" as="geometry">
            <Array as="points">
              <mxPoint x="172" y="628" />
              <mxPoint x="369" y="628" />
              <mxPoint x="369" y="729" />
            </Array>
          </mxGeometry>
        </mxCell>
        <UserObject label="用queue紀錄，每一層的node，回傳最左邊的node的Values" link="https://www.notion.so/7232d645de734dde8dcb7c9f48a1ab0c?p=5c364d9000704877ae42a2daf3fe5e2c&amp;pm=s" id="upza0JuViuWNQ2w0Z_TN-5">
          <mxCell style="rounded=1;whiteSpace=wrap;html=1;" vertex="1" parent="1">
            <mxGeometry x="82" y="295" width="179" height="41" as="geometry" />
          </mxCell>
        </UserObject>
        <mxCell id="upza0JuViuWNQ2w0Z_TN-10" value="" style="edgeStyle=orthogonalEdgeStyle;rounded=0;orthogonalLoop=1;jettySize=auto;html=1;" edge="1" parent="1" source="upza0JuViuWNQ2w0Z_TN-7" target="upza0JuViuWNQ2w0Z_TN-9">
          <mxGeometry relative="1" as="geometry" />
        </mxCell>
        <mxCell id="upza0JuViuWNQ2w0Z_TN-7" value="Binary Tree Traversal" style="whiteSpace=wrap;html=1;rounded=1;" vertex="1" parent="1">
          <mxGeometry x="530" y="163" width="120" height="60" as="geometry" />
        </mxCell>
        <mxCell id="upza0JuViuWNQ2w0Z_TN-13" value="" style="edgeStyle=orthogonalEdgeStyle;rounded=0;orthogonalLoop=1;jettySize=auto;html=1;" edge="1" parent="1" source="upza0JuViuWNQ2w0Z_TN-9" target="upza0JuViuWNQ2w0Z_TN-12">
          <mxGeometry relative="1" as="geometry" />
        </mxCell>
        <mxCell id="upza0JuViuWNQ2w0Z_TN-9" value="PreOrder" style="whiteSpace=wrap;html=1;rounded=1;" vertex="1" parent="1">
          <mxGeometry x="530" y="283" width="120" height="60" as="geometry" />
        </mxCell>
        <mxCell id="upza0JuViuWNQ2w0Z_TN-33" style="edgeStyle=orthogonalEdgeStyle;rounded=0;orthogonalLoop=1;jettySize=auto;html=1;curved=1;" edge="1" parent="1" source="upza0JuViuWNQ2w0Z_TN-11" target="upza0JuViuWNQ2w0Z_TN-30">
          <mxGeometry relative="1" as="geometry" />
        </mxCell>
        <mxCell id="upza0JuViuWNQ2w0Z_TN-11" value="在利用Array加上Position的資訊，來記錄每Level的node數。" style="rounded=1;whiteSpace=wrap;html=1;" vertex="1" parent="1">
          <mxGeometry x="491.5" y="515" width="197" height="60" as="geometry" />
        </mxCell>
        <mxCell id="upza0JuViuWNQ2w0Z_TN-17" style="edgeStyle=orthogonalEdgeStyle;rounded=0;orthogonalLoop=1;jettySize=auto;html=1;entryX=0.5;entryY=0;entryDx=0;entryDy=0;" edge="1" parent="1" source="upza0JuViuWNQ2w0Z_TN-12" target="upza0JuViuWNQ2w0Z_TN-11">
          <mxGeometry relative="1" as="geometry" />
        </mxCell>
        <UserObject label="傳入目前是第幾個的layer來得知，position" link="https://www.notion.so/Binary-Tree-Level-Order-Traversal-8c52619e26bf49adbea7f75778fdc2ae" id="upza0JuViuWNQ2w0Z_TN-12">
          <mxCell style="rounded=1;whiteSpace=wrap;html=1;" vertex="1" parent="1">
            <mxGeometry x="466.5" y="374" width="247" height="60" as="geometry" />
          </mxCell>
        </UserObject>
        <mxCell id="upza0JuViuWNQ2w0Z_TN-18" value="" style="edgeStyle=orthogonalEdgeStyle;rounded=0;orthogonalLoop=1;jettySize=auto;html=1;curved=1;" edge="1" parent="1" source="upza0JuViuWNQ2w0Z_TN-15" target="upza0JuViuWNQ2w0Z_TN-11">
          <mxGeometry relative="1" as="geometry" />
        </mxCell>
        <mxCell id="upza0JuViuWNQ2w0Z_TN-15" value="Array" style="text;html=1;align=center;verticalAlign=middle;whiteSpace=wrap;rounded=1;fillColor=#dae8fc;strokeColor=#6c8ebf;" vertex="1" parent="1">
          <mxGeometry x="391" y="432" width="60" height="30" as="geometry" />
        </mxCell>
        <mxCell id="upza0JuViuWNQ2w0Z_TN-41" style="edgeStyle=orthogonalEdgeStyle;rounded=0;orthogonalLoop=1;jettySize=auto;html=1;" edge="1" parent="1" source="upza0JuViuWNQ2w0Z_TN-27" target="upza0JuViuWNQ2w0Z_TN-22">
          <mxGeometry relative="1" as="geometry" />
        </mxCell>
        <mxCell id="upza0JuViuWNQ2w0Z_TN-42" style="edgeStyle=orthogonalEdgeStyle;rounded=0;orthogonalLoop=1;jettySize=auto;html=1;" edge="1" parent="1" source="upza0JuViuWNQ2w0Z_TN-27" target="upza0JuViuWNQ2w0Z_TN-29">
          <mxGeometry relative="1" as="geometry" />
        </mxCell>
        <mxCell id="upza0JuViuWNQ2w0Z_TN-27" value="Python" style="rounded=1;whiteSpace=wrap;html=1;" vertex="1" parent="1">
          <mxGeometry x="204" y="796" width="120" height="60" as="geometry" />
        </mxCell>
        <mxCell id="upza0JuViuWNQ2w0Z_TN-34" style="edgeStyle=orthogonalEdgeStyle;rounded=0;orthogonalLoop=1;jettySize=auto;html=1;" edge="1" parent="1" source="upza0JuViuWNQ2w0Z_TN-30" target="upza0JuViuWNQ2w0Z_TN-27">
          <mxGeometry relative="1" as="geometry" />
        </mxCell>
        <mxCell id="upza0JuViuWNQ2w0Z_TN-46" style="edgeStyle=orthogonalEdgeStyle;rounded=0;orthogonalLoop=1;jettySize=auto;html=1;" edge="1" parent="1" source="upza0JuViuWNQ2w0Z_TN-30" target="upza0JuViuWNQ2w0Z_TN-45">
          <mxGeometry relative="1" as="geometry" />
        </mxCell>
        <mxCell id="upza0JuViuWNQ2w0Z_TN-30" value="效能比較" style="rounded=1;whiteSpace=wrap;html=1;" vertex="1" parent="1">
          <mxGeometry x="350.79" y="729" width="120" height="60" as="geometry" />
        </mxCell>
        <mxCell id="upza0JuViuWNQ2w0Z_TN-44" value="" style="group" vertex="1" connectable="0" parent="1">
          <mxGeometry x="340" y="883" width="185.78999999999996" height="154" as="geometry" />
        </mxCell>
        <mxCell id="upza0JuViuWNQ2w0Z_TN-29" value="" style="shape=image;verticalLabelPosition=bottom;labelBackgroundColor=default;verticalAlign=top;aspect=fixed;imageAspect=0;image=data:image/png,iVBORw0KGgoAAAANSUhEUgAAAWoAAAEsCAYAAADq2fmSAAAAAXNSR0IArs4c6QAAAARnQU1BAACxjwv8YQUAAAAJcEhZcwAADsMAAA7DAcdvqGQAADawSURBVHhe7Z0LeBXVvfZfLgIKBBFBQChISJCICAGRhLbEW6BHsBzR00qDx3Pw8inS5yB+n9b2iNBTi+co9JEijxeOLaZUq3hQ9BQiVGKbBJWLAkYJBEGQqBEQCFeFfvOuPSuZvdlJdm47K/D+eIaZWbPWzJrJmnf957/+s6fZ3z0OHz4MIYQQbtLcnwshhHAUCbUQQjiOhFoIIRxHQi2EEI4joRZCCMeRUAshhONIqIUQwnEk1EII4TgSaiGEcBwJtRBCOI6EWgghHEdCLYQQjtNoP8q0a9cuvPLKK2bico8ePUz6FVdcgRtuuMHMhRBCNIJQU5QfeOABrF692qxbgebcphGuZ2dnl28XQogzlbi6Pt555x1kZGQYQR4+fDj+8Ic/YNWqVWaiKG/dutUscxsFPSsry5Q5/ShG9p3pGHL9DKw64CcJIUQlxE2oKbw/+clPzPJPf/pTI8zWvbF48WI88cQTZtla0szDMvfff7+ZV08OZiQlISliGnLlP2Hy40tRfMzPJoQQTYy4uT5oHdOSphUd6X+mlU1oTQehgFOoaWFTvKuGQj0Z2YMykTWwi592DF+uX4WcjaVI6H83fvs/U5HWwt8UBw7kLcDDz72EDv+0DNMz/UQhhKghcbGo6b6w7o6aDBKOHz/elGHZmF0gKT/E9H+f7k+PYN4rb+HVaWnAR0/iv/8Qi2Vef5R+lIulucX+mhBC1I64CDUjO8isWbPMvCbYMnYfNac1Um7PwihvaVVxYShJCCGaEHGzqEltIjhsmToNKragXEfi+7Sn5/jrQaJtK8aCiV7axAUoPrELOY9Pxg/TQ37w9FG3Y8afA9Z60QLc4qWPfrTArGZPDuVLSprh7Zn4+ypfJ4H9HyvES7+4BVcOY550/PD/ZqPQ+NgPYP3CB3HLlUPM/oZceUv4cYOUFiD7F7djtF9H+urvfbYApSf87UKIJkNchJqDgXRhVEdlg4axlK2SXV+Ce+7Rtn1ovU4cwKqZkzGvqAuunzYbj9x/E/oeXIXsn96GWXl+lq4Z+Nc5szH9RylmNeP/zMZsb332nOsRSqmKXci+czKWYiTufmg67r6qM3YtmYGJv3gJBc/eg9v+UIrBtz+M2TPuRmorT4yDx7Xs8zqarFswJ+8YUv/1Ee+40zFpaBusfvQWTJyZ452BEKIpEbeoj6rgCy4UaQ442uiPINwWW+RHFE6UIueZbKzqmIascWl+Yh1Y/SRewmQ8/5QnfuPH4qbbHsHCJ+/GYM8ifmnJ0pAIJiQiY8xYpPXuYIr0uHQsxnrrY8cMRrXPFKuzUTx8Hhb+xyTcNCYLU596Hg+PS8CBJZ4l/fT5ePiFZzB1grevCVPxzKP+cXOClr8n9L/4GbK7TMXzyxbikdtu8o6bhbv/ayGenZaG4kW/xpORwi6EcJq4CDUt4qqElqF4jz76qFmmUDPSIwjLxuw2KXwVM345w5/uxS3XjMbkN7t4QvVbTEr289SJsZg8LRMJ/pphUAbS+nu29q6dxnKvG574Twja3QkYOWKkWUqZMBFjO5rFEPa423Z6cu2z8TW85ul21sS7kRLh70kZl4lMr4brNspXL0RTIi5CfeGFFxqxrcrPzAgPGz/NsDwr7LZMzNEi7+cge2G2Py3Fzl6TsHDFQkwdGSattWdoXySesqsEJNB4XlNad6GOsv+Ec0KW+SX9Bpt5Bf5xA5Ru/BDrPbu+wi8emL4X8omvL6l7dyKEiB9xEWq6NsjcuXPNvDJoNVOo+YaitaBtGbuPapkwD1u2bMGWjzdh2aybkFA4B/fcvQCF9TWI1rJ1lIHJeqSK/beOIQb8wOGD3v8puOnfrV88yjS2ek+5EMId4iLUtIZtPDSt5Vhh3trEXxtatEbi+Ecw+640IO9JzHruzHjcD4n5LrTuYf3iUaahNY++EUI0HnEbTGQ8NK1kWsjRBgwjsW8lkilTpph5bUj8l+m4ewRQ8PQsLPjITzS0R+te3mxHFL9yUcDnWwdisYDrmx7JKeiBA1i3Yb2fIoRo6sRNqCnS9jVwCjVfG4/ms6ZvmtEfFGmWifbKec1IxKT7JyFtXwGefHRBQIAvwSV0+ebl4rUwAT+AnIXZCEVA140eFyaa+f7DcQyIGz4So/oAhYvmRHRMHoyAee6lehjwFELEk7gJNbFibaNA+CNNFGxOFOe+ffuW/7qezVs3kfbpfzemTh6MA3lPYsZzVqoTMPIHWZ6MF2DOpFvw4LMvYeniBXhw4mjMbpGBevlpjpREZHizpfN/hicXL0X2L59E+K+ZNAAt0nD3tCykeOc1659/iNt/uQAvve4de54fAfOXA9DvUwnRtIirUBMrwPwBJkZ6cJ2ibcWZg4n250+5Xl8MnjIVk/ocQMH82cj2TcqEq6bj2SeykNF+K1569EHc+/hLKE1+GM8+lAb7s051okcWpnv7Tzu+GnMeuBdPro/2hmT9k5A5HX96YTayBgJbl87Cg1PvxZyXi9F6xFQsnD3J65yEEE2JRvvCixBCiNiIu0UthBCiZkiohRDCcSTUQgjhOBJqIYRwHAm1EEI4joRaCCEcR0IthBCOI6EWQgjHkVALIYTjSKiFEMJxJNRCCOE4EmohhHAcCbUQQjiOhFoIIRxHQi2EEI4joRZCCMeRUAshhONIqIUQwnEk1EII4TgSaiGEcBwJtRBCOI6EWgghHEdCLYQQjiOhFkIIx5FQCyGE40iohRDCcSTUQgjhOBJqIYRwHAm1EEI4joRaCCEcp9nfPQ4fPuyvNhQ5mJE0Gdn+Wiyk3b8MC29L9NeEEOLMxV2LukVrf0EIIc5s4mRRF+KlX77k/V8FB4qxfEkBSrnccSxmL5+NsR3NFiGEOKOJk1BXT8F/jsYtzxSbZbk9hBCiAjdcH7uykf1ySKTRKwtZ/ySRFkIIixNCXbAoGzn7QstpP85CZkJoWQghhAuuD8+annzDjJBQe9b0vFemxyjUJVj+m/nIwwjcdU8Ktv3xZaws3odvTwLteo3Ezf98NXq2LEPRX5bgjfwi7DvuFWnVESk/yMKPh3QO7cJSthN5S5cgt7gUR5mveRt07HYFbrzT20cohxBCNBqNblEXvvpauTU9+B9vqoU1XYqVTz6Hd5GCq/9hJAZ2aYOyHbl45vd5KFr2HLJX70PP9OtwXcZAdG6+zzveM3j5I78oOboB2U88g+Wbv0XnQSNx3ZhRGNGvPY6UlIQGNoUQopFpXIv6wFLce829WGqEOgPT33oGWT3MlhjwLeq9QMfhd2HqP3Tz08uQt+A/sXyHt9i8J0bddztGtAttQfGr+M/fr0VZ0jjMnJhqko7mP4NHlu1Enx/OxK1DTFKIA2UoS2gHW1QIIRqLRrWody15zRdpIGHc9bg+ZpEO0hPDrrIiTdphSP+Qw6JN6tUVIk0SL0W/c7z5nlJP5sP55kiZv+QjkRZCOEIjCnUhXlu6yl/ugZvGjEWtxhDP7Y4+bfxlnzZnn23m3S/sY+YVnI02kXkHDkGyl7ZzxROYuzgP2/Z+628RQgg3aDyh3rgKq973l/tfj1Ej/eWa0rylv3AqLWM5u3apyLonCyN6tkTpB8vxu9/MxCO/fRnrvvK3CyFEI9NoQr1+5XKs95dTrsrAYH+5UUhIxqhJ/w8z77sVoy7rDHy1AUt+Ox+5e/3tQgjRiDSSUBdg+ev2hfIUZGQ0qkxXkNAHI8ZPwU/H9kHLkyXYsEZxH0KIxqdxhPr91ShgVAbplYbhg/zlRuDogTJEeqXbndsRdKi0bFW5W0UIIeJFowh18Zr15T/QlDAiFWn+cmOwL/8ZzPyPOXjm9ZV45913kLfsBcx9cS2OtknGFUP1q1BCiManEYS6FAXrC/xlYHi/xnV7dExKRXLCEZSsycUbr7+B5Wu2AT1HmgHGVMXnCSEcoBFeeFmFGcNuR7aJnx6Mqa/9CXf3NxuEEEJEIf4WdVExiv2XXIC+6JvsLwohhIiKM79HLYQQIjqNFJ4nhBAiViTUQgjhOBJqIYRwHAm1EEI4joRaCCEcR0IthBCOI6EWQgjHkVALIYTjSKiFEMJxJNRCCOE4zgr1un3r/CUhhDizcUao39j9Rpg437Nmctj6guJn/SUhhDizcEao39+3Hr/a9B/+WjgU7f/d/b/+mhBCnFk4I9T/2meSmUdaziVHSoxl/fMBv/BThBDizMKpnzmlKJNuZ3cz4pzaMTUsTYiqKcHy38xHHr8ef94I3PVvo6BWExvrnn8ISzAOMyem+ilu4Xr9GppGFWq6NAZ3HIxJibf5KfVEzgwkTc72VyrImrcF0zP9Fec5ju2fzMXTny7HmuMHUdasE9I7TMCtAyZgwNl+FkOs+U5lT8kiPL1tEfIP78EetMeAtqMwYcA0ZCT4GSyH1+CPGx/H4gPbsdtb7d4qHeP7PYybu7YPbSdHvDwbfo1FB3ZjT7PuyOz+M9yXMhTBr5mVFU/DDTt7Y/b3p2BAvT/L+SLd6cy9mU+hZDnmzM9D53+ciaxqvnhXFyEsWTYH8/PLvwZSTnIMx42VM12o4+r6oHVM1wbn1qWxYNuCBhooTMMDb2zBli2hadn9acienIQZOf7meicHM5Lqb/9Fhbfjjq0vY9VxoF9COtKbH0T+13Nx79rfoeikn8kj1nyRlO2Yjimb5mLp4YPo1DYdGa2A7YdexoNrpmPVET8TObIKj6+egrmeSLdrm4mxbbvj2PF8zN14D/64x8/jyffi9V6eIwMwZfAf8XTPZBR9NgWPbTvob/c4koO52zdjbHJDiLRHyQYUepZ08gCJdJVQvB+ag+WhB9V6JBnjZs7ETDv9o9cG/uchzFlWwwM1WP2aNnEVaivMtKTJ4u++YuaViTXz/erD8AFG5hv/1xvCIkJiIfG26XhgOJCd12BKXX8cWozffVaEMq/xT0n1BO6Kx/HYVa/jkXM7oezIU3h6C+3aGuQ7hXw8tzUH29EJ45Nfx+/SH8cjI3Pw2wuT0e6EN/84388HrN38GBafAAZc8IyXbwZ+lr4Yj3fn99OKvH0s9Y7tsT8Hqw4B4y+agczze2NAvzsxto3Xde1Zy62GtZufwMZz78O/dPcTRMPTbRSmeqJZX1ZtjRichXFJwL6PN3jPOqKuxFWo6XM2fuejJdWKtQ3XiwzbYz6WX7/3NI6z/moDVnHe4Se4uZNJ8WiPjF6jPEn2ZHZPAYwxG2u+SL4uClnbrcZibK8K90Vy4o1I9+a79xYgJLH53j64h6EYlTjApJDkvjeCHqSyA/lYw/383aSiewfOSW9084S6nC/n4qk9l+KOlIwwV4g4vUkd4LXCvaUS6nogbkJt3B2ewP78kl/ELNaR2IHF2lGMXauBtJ6J/noFOdOTkJRUMZ3qvgi5NYJ5kqZXZAqVnwx6xeleCd9ejAUT/TR/uuXZYn9bDWnV3pNhj0ObPXu2CmLNF0lrv9zJDSja782toLdMRr+23ODTuh8uasWF3Sg5YFI8SvCVZ1WH2O79fYF2bF0ni/D7zYvQvfeDyKjGZx4d+p4fwkMPBabnwztp+i8fmp8Hekn5uM082etD2yKhP/Whh7JxSje/PttLj3jkNmmB455Sbh2yY9jOupg6Mk953SPLVl7nqHWz1+U3y8OF0OT162HcCHa/fn5znfYhb37omKe4Jvwytk41dl1Ugjn/yLoaQtdhzrKN9Vi/6ttM8G8TahM2r5tul7gJ9X97Isw46f/1LOTqxJrujj9HiZtm2dqSM90T0uEPYPptQaEOiejkbQ9gme/L3jIv6xRfdvGzngTPq/B3b3njAaQtmlwuuJkzmD4PWd4yByxNnhm0Obn/0ZjVZ15Y2VO7igjO6Q5jv+5fjqWBcd6i3W9hs1k65v3ziDVfJGd3gjHAj6/Cqs+PmyRStuMt35L2oJVctju0n5btIyzhVmhlWk4RdlPQz81AepuDWPrJXKzdvwdFW5/C0qOdMLZbBrZv/hVebnEf7kissNxjxtyU/gBhuf9zHJK3LAm76VMneul3jUBHb5kDWMxX58d9Ct7/lGLEXfa4M82jfDmmbktQmn5XYHsRlkTpBEpz56BwgL8fMxhGkQgvS59upQxO8Z5X9qHwg6CClKCU0S17C7EhkLxuk9c1J6XgVE99N4z6N+845jp1LD+vqaMDcTG8ri8CPw7UaV/+/Mo7kGowdTmvs4m8CVnX4XUlJctyvVaUjJGjL62f+sXYZizs2F/Aj8vzjktiJxGlI29k4ibUgzoONsLMF1eiiTWF3BLp7rCs31eTFlOAWddVWLGTF6XhgX+fFC6SOdmYtToiPXM65k3wLOPnF3gyGyLxtoXh0SLJk5Dl5SnYWZ1lHLLis0YECntlwzuLKHSegBuNruXj13mZuCN/Gh7MzcQ9JSUIC8iINV8krcfixgt6ewvb8buN12JC3jQ8nDcGNxcV4HiwRZw4FvJBV0tv3Dzk17gRS/Gzd8fgnh27MSTpaUxpvxhPfwZMSBmLss3TcOuKNKS/mYYb//Y4CoIDlpWwboVnXSVFjvSnIos38948rKylgMRCyRelnsikYGBAJ1InZpULoKnbeSPw44CQpE70BMGTndwIK29fp5HhHUdJKUo9MUq5LLDzwVlVdC6pSIn0964vRNF5yUg+bx9KP/fTPHkp3OI1sVoPqCZjXDCkcfDVGHGeJ2abai5btFKXbPEE90f+/sy+PBFcEdxXCTZ87D0HRe1YolF9/WrcZry8wc4g9Rp2FEUobMC2VRviJtTXdb8Ok/pMqlSsKc71S3jUx5Y3RiKXwh10WeR5lvKELEyKMGYSe6YBq3eVC3WIcBfG5EVe0radEXkiSUQPDmBOvgULauSDaI/MYYvxSKcB6N3sIDYdykdRiww8eNmdIQu6eULIRRFzvlMZMPBpPH1hOgY0P47th/Ox9pt+mHDpg8g0LSIBrc4y2aqnhT8/JwN3fDcHOdcWIOfq32Na7/bI+fAxHOz2c4zd/ys8+Olm9O79eywdfB8GHH8Z099fHN1/Xk4VotNtIFJqKSCx0u2Czp4FmIf5pzwyE79uIyPjtLuhs1evfaXhQt2xc3gudOuMzubxPnbLLWSRVvh7aa12vPhqpHiPRuXXwe8AOncNrdaYUwTTOx8+eu2Jxc/Mp4kKV8P8/M4YN3MqRpWfejcMvNh75tlSWHHOJlLHE/NrYuxYqq1fzdvMKXnN38Z7Cvqi+jOOJ3ETagox46UjxTpuL7J4luzCeVnAomxfNIuxc5s3WzS5XHztNPrRAmYoJ+SDHo3ckcvKhZ9Wd/UkYtLzzFth3cfsn27eHRmpz2DRNQXI98Tv5e8+iIyTuz0b2OPs3p4N6xNrvlNojwEpj+Ppq0PllmY8jps7HsTub71Nzb1y9Em3810rJ4+hwkFCjuO4Cf1LRvdKRgfLtj+Cp49OwJ39k7HmixzsbvsvmNI3GZ3OH48pPYairMzrHKL6ZXyM6DQinoVrHsP5yGzEJyCqft2sP7xi8l+2iaDzBZFt3LPwZt7lWYMV4late8G4P6ylR0EKWeRGwH3xK/mg0LPyw58C4kdEeN7MiqcPS7fLUsKs1Xqvb2O3mQYkLkJNkabfmWF1QbGmP7r+Lekq6N3Ds7MtiejZx5tNCPiPw6bpJrKBL88Yt4lnnS+szmVRCSEftjd5HUXBo6PDrPqasOlzz2L25umd0kI+5kqINV8kZbtWgYF53c9LwxAmdOyHfpwfL8L2oKge24xPqNzNByL53FBSGCfz8dy2jUjre6tnsW9HCcue5fvFPTq19kwbfIU9Vbk/fMumvjGWcqz44W0zy0XVH2jy62b94adMMb2U4fuMvfx3pXvyVW3McchaNxahcXv4AmcE3BOokpAboePFA72cjuJdz5FJ1qptgPo2UJtxgbgINd0b3dp0M+JsxZppsWLzBv3WXWtjiW/fhaCtbFwci7xHdX89dnJQQNdHTcmcbl68qd5l4onm4XDHQNnnc/HUF56d3DwTY3pXBCPHmi8Slguzkg8sxWM78k1M9viLGKTn0XwILjXO7nws3Vrhuyna+rK5Zr29jsAIegSbNs1Fbruf4s4edLx4Ak03yomD5f7uPcdodvZGtyod6QFhiqTOL7dQ2PxFHzPwVSkUVfqfrT+4irrVgm6jp4ZijiMrFYbvOvAe85cbt4cVONaFA40bULo3wu/tIOVPAOtXek8fHESsz/o2ZJtpXOIi1HRv/HbovDCxjvWFFfq2SWR+mx4zRQtwC18rD/ikE2/LQhayMXlixcChwbOiy6M+jBVegNy3K3KYCBJ/uQLfHx32Qk0OZoRZz8VYlet1FX16VgxeVsKaD8dg7F9uxoPvTTcDhDdsXIS16I7xfe9DRms/k0dM+Y6twuNvpSF9xe1Y/HUo6avt92LMyjG4751HzEDiWG+ec6IV0nv8HDeXW8ntkdnvTiPGa3ffjlvzp+PX+eMxbbcnai0ycUc/X9CD7HnK6yi6445LM/1IkfZI75yOdgefwmOe2O/5ajHm7lqD3p1HIaPK1ueJ449810OYn3gdshnClTSudpEdfgRF3ouBCID12ViyxV/2KVmWHRGq51mx5f5fr24jKThLTrGC1z0fg9+5ZDmyw8qFfKun+LIjMK6DvYUo3BMU5JCA7/u4EKWxuBF8/3h4BEkc8V04ubml0QcR61S/BmozDhA3H3WkWMdK1zahkZFgDHVsIh0e9ZF03SwkMnTOhM1ZMjF9yzI8gFkYbfNxer4Hsmw237dtXBb+9oIR0XzUiZg0kT5w3+dtBTrMB+6H6oXVITrdE4Z6NudurPo6x7we3rvtjXh42B8xLfCCCok1XyTt2/fDwObHscGzpHMOH0T7czIxbcAreKy/34tZzr0Vjw+bgfHntMeeQzlYeuigZwnfibnDZ0SJi96OP360CO17TUNmYFu7xIcxu+tFKNr+zxi7/insbnsfHh4YReQjMa4HP7Sq3A/sh7XF5F6IRkUEwHy7z00pUcLjSstjec1kQvUCg2O+Dxv58yvyeFNu56tPFZ8olIaVC51TWChaNMyAGKOMwwU5JOBeeqdQKFzVpOLqdE/Y/ePXV5x07PjH9+ob3bqtY/0apM00PnH/USYKLsPxYhFrujwo7oRlaFVT6PmTpzVxnQgh3MH8iNPHKfp1wxoQN4vaErSsq4LbrUjzbUXr+pBIC9GUWYeV+Y4PejpI3IWaWLFm9EckFGimL/5e6E1FCjRD+ZjGMhJpIZouFW8iSqZrghMfDrC/A0IihZhCLXEWomlT8ZvVjLc+NcZaVI1TX3gRQghxKo3i+hBCCBE7EmohhHAcCbUQQjiOhFoIIRxHQi2EEI4joRZCCMeRUAshhOMYoW7WrJlZEUII4R5GqJs3l2EthBCuIqEWQgjHMQrdooX9QqkQQgjXKLeoW7ZsaRKEEEK4RbnPQ0IthBBuUi7UtKpbtWrlrwkhhHCFsFFEWtVnncVPRgshhHCFMKEmFGpZ1kII4Q7mwwH+chgnT57Et99+ayYhhBCNR6VCbaFgnzhxwsw5VZNdCCFEPVOtUAshhGhcTvFRCyGEcAsJtRBCOI6EWgghHEdCLYQQjiOhFkIIx5FQCyGE40iohRDCcSTUQgjhOBJqIYRwHAm1EEI4joRaCCEcR0IthBCOI6EWQgjHkVALIYTjSKiFEMJxJNRCCOE4EmohhHAcCbUQQjiOhFoIIRxHQi2EEI4joRZCCMeRUAshhONIqIUQwnEk1EII4TgSaiGEcBwJtRBCOI6EWgghHEdCLYQQjiOhFkIIx5FQCyGE40iohRDCcSTUQgjhOBJqIYRwHAm1EEI4joRaCCEcR0IthBCOI6EWQgjHkVALIYTjSKiFEMJxJNRCCOE4EmohhHCcRhPqJUuW4IsvvjDLb775ppkI07itrKzMrAshxJlOowg1xZhCbIX60KFDZiJ2m10XQogznWZ/9/CX48K2bduwYcMGI8bt2rVD27ZtjTjbZQo0t11wwQVITExEnz59/JJCCHFmElehpkjn5+cbUa4O6/q49tprjWhXx+HDh/H222/jq6++wuWXX45+/fr5WyqH9XnvvffQoUMHfP/738c555zjbxFCCHeIi1BbVwYtaVrPWVlZ/pbKYRn6qinSAwcONNZ2VQIfFOoLL7wQI0aMQKtWrfytp3L8+HHk5eXhs88+w/nnny+hFkI4S1x81CtWrDCDhdbFYaEY06oNTtZvbfNxnWW5j1igsH/99df48ssv/ZTocPuBAweMNS2EEC4TF6GmRcwpKNIUZVrMdIUEJyvoFpZh2bS0ND+lalq3bm3K7Nq1CydPnvRTw2E6tyckJOC8887zU4UQwk1aPOzhLzcYHTt2NJbuzp078c033+Diiy/Gvn37zLoVcQ4cUmAp0l27djVl6CrhPD09PUzko8H97tixA+3btzdlPv30U3Tq1ClqOVrTH330kRmoZLkjR46gV69eOOuss/wcwLfffostW7bg3XffxTvvvGOWaYGfe+65YS6VwsJC08FQ8Hfv3o2CggJThufBjsAOljKN0+bNm3Hs2DHjbmnRooW/lwo+//xzrFmzBmvXrsW6devwySefGLcOjxusH9NWrlyJvXv3mvOlr5314LnwOAcPHjQuoEjYQeXk5Jhjsw5CCPeJi0VN8QrGTQehgNspmqjSt82y3EesUKBatmxp/M/RYHqbNm2MUFHYIqHF/f7772PTpk0mD/3d7Ego8BRDimAkW7duNR0PO6GUlBTj1qF48smBokuh5SBn586d8eGHH5p9B+ExmZabm2uE/JJLLjEdVJcuXcy+//rXv0Y9Lst98MEH5jjsdM4++2xTZwp4tBBHngM7j27duvkpQgjXiYtQUxhqi43+sPNYoChSENkx0AoOwnVrtdP6jgaFkdbxd7/7XQwbNgwXXXQRBg0ahOHDhxthp3UdhAJKkWT+vn37IjU1FZdddplJp1hTvJlGC5776969u6lDUEhpSdPaZofASBeWYX66fDgxLwU+0p3DJxOmXX/99WaQdsCAAUbc9+/fjz179vi5QnAfFGo+adDaF0I0DeLmox43bpyxmiOhYEUOJAZhGZaleMVK8+bNjbgePXoUJSUlfmoIPvrTrUFXR7NmzfzUChgNQoubQh5ZX7o3KHIUe+YL0rNnzzCXCK1adgTsMIIuCGvJ02q21jyFlq4aRp0kJyeb+gdheVrAtJIjOyyeS//+/cOEl3m5TvEPQpGmWLOjEEI0HeIi1BRg+puDFqS1spluBxKLi4tNWtACZxnmoZDXBAoqBZGWsRVV+nUpwhRPWt3R4PE4FRUVITs7O2x64YUXsH37dtMBUCAtFORI65yuFwouz4UDnEG4LQhFm9Y39xEtRJD7YX1Z/0ihpiBHHpsuJPqtg+4Pdgb8O7CzocUthGg6xEWoGclBsQ2KDK1VWsn0wwanyBdcWIZlOdUEimGPHj2MWFmrmkJFa5jpkVar5cSJE2ZKSkoyroxoE90LkTHa0axzUll6EIay85jcZ6SIWyjgkR0EoU86OMhIeG48R4o0rWjC68hrwc6rqvhyIYR7xEWorevCCrAVbK7TDxucouVhWe6jptB9wThpuhUocnR7VGdRUlg5Uex69+4ddaIIViaotYXHpOUfKcQWWt0U61hF1vqh2TnRmuaLQOwMokWCCCHcJi5CzUdxCi591RRgRnFEuhUiJ+YhHFyz4l1TaG3Sd0yRouuEFiV901WJHcWQ5eiKoDjGA9aHLhIek+6NSCi0HBhkvaK5RqLBvOyoONjIgUW6gGhNV+byEUK4S1yE2kIxonvDCq8VcAuXbYge58xLK7sucGCNA3iMd6bIUbyqggJHQSstLS33mQehVU7xq09onbNDsb5xCnMQ+tXpvmHdaxKtwScHWul8ouDbmixfmctHCOEucb1rKb4UXlrWhMt0azCdE5etMDMkra4iTShs7ADo+qBQxWKRMsSOroONGzea3w9huB4FlC+Y8CUUuhDqGwo1I1XYOdCn//HHH5ungNWrV5sXWFgfxlbXBJahq4cDoBzQrO2TiRCicWkU88pGdVjh4Dy4TNEORn7UFfplaSXH6p9lFAV/pImhcrSeKZYUbb7Nxzho7qu+oaXLWOsrrrjCHMdGw9Bdw8FLPl3UdBCQljo7J7pUKNqxuk2EEG4R99+jFvGFL9HQ7RN0OQkhmhZyWJ7G0D/NQUS6PzgJIZomEurTGIo0XSf0f0fGWgshmg5yfZxmMLyPA5KMy+acljR/o0RCLUTTRRb1aQgtafqmOZDIX+yTSAvRtJFFLYQQjiOLWgghHEdCLYQQjiOhFkIIx5FQCyGE40iohRDCcSTUQgjhOBJqIYRwHAm1EEI4joRaCCEcR0IthBCOI6EWQgjHkVALIYTjSKiFEMJxJNRCCOE4EmohhHAcCbUQQjiOhFoIIRxHQi2EEI4joRZCCMeRUAshhONIqIUQwnEk1EII4TgSaiGEcBwJtRBCOI6EWgghHKfZ3z385Ubhyy+/xKZNm3Dw4EGMGDEC559/vr8lNj755BO8++67+Oabb0zZ73//+zjnnHP8rdVTWFiIdevW+WvR6dmzJ9LT03HWWWf5KSHqUlYIIWKlUSzqb7/9Fp9++ilWrlyJnJwc7N69299SM44ePWqEmiJdW+rSTzVyHyeEOEOIq0V97NgxvPfee0aYjx8/7qeGaN++fY0t6qKiIqxfv75cqGtjUdMa537atGmD7t27o1WrVv6WCri/5ORktGzZ0k8JUZey0dixYwdKSkrQunVrpKSkmHlV8Bp+9NFHOHLkCLp164ZevXr5W4CPP/4YX3/9tb8Wonnz5jj33HPxne98x9RZCNE0iKtFfeLECZSVlRmBoSugR48eRqBrw/79+7F169Y6WdNB2rZti4EDB2Lo0KGnTBTNqoS2LmWjwQ5t3759/lrl7N2714h0ZVhhPu+888zEjoRlKO58GhFCNA3i7vqgWFx88cXIzMzE5ZdfXq3VGI2TJ09i8+bNRnS6du2KDh06+FtqBkXeClazZs2MsMVKXcpWRYsWLUwn9tVXX5mOrTK4jXmYv7Jjc9tFF11kLHpOgwYNMpY3OwKWFUI0DeIq1HQDXHXVVcbS7NixoxG42rB9+3bjm6Y1TgGqy0Cd9fxQ1Gpan7qUrQpa6IcPHzYDrJXBbcxT0+vI/KxvVZ2AEMIt4m5R1xVGiXz44YfGoqW12KlTJ39LzaFlbgWLln5NXBR1KVsdVkzpr442hMA0bmMHVdOnCYo7687OQAjRNGhSQk3fNgfJ6J/m4B2t6bpYshRaO6i5c+dOvPjii8jOzsbixYuxYsUKFBcXmwiVaNSlbHVwoC8hIcH48w8dOuSnVsA0bqP/mcRiHVOc6e7gQC47AvqshRBNgyYj1BSaDRs2mLA+WpEDBgxosMgFDtB9/vnnKCgowNtvv21EMVbqUtbCzqdz587Gci4tLfVTK2CazVMVfOpgVMzq1atNhAo7D4p73759682nLoRoeJrM3UpLmkLDx30KTZcuXfwttYeWKPfDwc1hw4YhNTXV7DvoTqAF+sEHH5xiHdelbCxwP/TBM8SOg38WDmAyIoTb27Vr56dGJzLqg2MEdB2xw6sqWkQI4RZNQqgZX8yQMlqIiYmJ6Nevn7+lblAIKbAc3KQbhaF0w4cPx3XXXYfLLrusfJCS/mAKXJC6lI0FazHTvRIM1aP7gsJfnTVNIqM+Lr30UtOx8Dpu27YtJpeJEKLxcV6ogxYgX9RgvHJDP7Zz/5dccok5HqEVG/nySGXUpWwktJrPPvts4+qgOFNgGZJIy7i28ee0sDnxesqqFqJp4LxQMxSPg4eE/uk//elPZtDOTq+88kp5TDDnXGd6bm6uEbbaQsENujFq4muuS9kgtMrpsmCkBsWe14HiyjcwaS3XFkap0P9Nv78Qwn2ajI+6salL+F1dytLFQWHlkwUnDqDWNWKD7hS6Vhr6yUQIUT84f6dSlOhXrWxKSkoqjwnmnOtMp8DVJXSProY9e/b4ayGfdKzUpWwkfHOTrgq+4HLgwAETN07hri20zDnRpcJJCOE+zgs1Iyns72ZEmzhAZgWHc64z3f7GBt0Oq1atMvHNjBwJwvjnaL+pQaHl4KX9VT+K4wUXXGCWLXUpW1PY6dD6ta6QWOFgId/g5A9Hcdq4caO5BtwXf361Lu4TIUT8OO2ffRndsGvXLuPb5Y84BcWVVip/ZpU/t0oRY941a9Zg2bJlJqyOPm6KI3+Vji+gBKlL2ZrCJwWG4nE/HEiMFfqgaT1zANL+gBOFnoOdda2TECJ+NOqHAzhIxpdCOAhI90BtPhwQ3Ee0nzllxAgnQhcCj8E380h1P/xPFwMtc06R/ty6lBVCiJpw2itInz59zM+p0i1CN4oVacJ0+rNpZdq4Z+te6N+/P0aPHm3egIwmtHUpK4QQNaHRP8UlhBCiamTuCSGE40iohRDCcSTUQgjhOBJqIYRwHAm1EEI4joRaCCEcR0IthBCOI6EWQgjHkVALIYTjSKiFEMJxJNRCCOE4EmohhHAcCbUQQjiOhFoIIRxHP3MqaoX95NihQ4fMF2j4G9x1+YjvmYT9JBx/z9xFXK/fmUjchPrTTz81X2KJhF9k+c53vuOvNQ0+//xzI1KlpaXmi978GMGQIUPQtWtXP0c4wa/QRBJ5/sF985uG/N4iP0DAr9NYuD9+7ovfbeTHb5OTk9GvX7+wjxTw02A7duxAWlqa+XJ5fWJFmh9K0M0cgh8e3rx5M3r37m2+cVkVdRFC/k1LSkr8tQoSExOrPW6sSKjdI66uD35ui18+ycrKMlNqaqoRMIp4Q0BB4zcM63P/FCjWmULKT3/xqzH8NiEFuzKOHTtmxI1fmeHHboNT0ArlTZiXl2f23aVLF3O9PvvsM7z77rvmG42E+1m/fr35aG9GRoYRaNaJZS3MW1xcbLbVt0gTXtejR4+a+ovKoXivXbvWzOsTdpCDBw/G8OHDzUSR5t872AZioaHqJ+qfRvVRJyUlma9h04psCrCetDZo3Y4aNQpXXXWVuVHGjBljPs1VGfwaOCcK+zXXXIMf/OAH5VP37t1NHn54ll8KJ1dccYUR4czMTPNVdX6Qd8uWLWbb/v37zYdqKcIUc96kFEyKu4Uf8eUnwSqz8EX9w48FX3755fVm1dYEHpNtkoLLjlycfmgwMUZoNW/fvt0ILj9Y26FDB38L0KxZs5i+jUiL2n5fMRL6emmpUnS7devmp4a+zUjLes+ePUbM6amiFW4/4Mv9cb8WdiYUcrpD9L3GMwe2Gz7VsX2K048WD3v4yw0KLUGKCP2xVmToEuAjGy2CSEuEj/tvvfVW+VfEaTEExZGitnLlSqxevbo8Dx/HL7zwQrOd5f/2t7+ZfHwkDG7/5ptvzDZOtizFrypriO4E+iBZd/ruKhPcaNA3TYuYN5OtXySsJ33OdFXwKYP+acIbj64bXisr4MxH65xWHM/lk08+MV89Z/3ff/999OrVq1bWNK2xDz/80Oxv165dZqKLJfhleD5R8PjsMGjpMw/95BxQjITXnX9fnnfQxUPrn19xZwfEsjZt48aN5cf94osvwsrx/OmX57Woajv/Lqwfnyps3SPLVlXnaHWz1+XLL780x7QdIPPyejCNfz+2I/4dWI75d+/ebTp45uMx+bdkO7ZjFczLMqxvcHtV8D7isfg0FbymTOM2pvPc6ccO1pXY68A5j1cf9YulzQT/Ntw3rxnzsY7B6ywqp1GFmr5WMmjQoHJhsiLKBkDXAH1xbBz0C3NuxZrCR9H73ve+h4EDBxoXAm8wNjwKFrfRf8xGOHToUJPPinR+fr6xQrl/W5aNiQ27MihKbIy2oXIf7AwoRjwmy9KyjgbPnfloFbPhs+60etlIrTXM8+WNw0ZOtwW3EaaxLG84CjjPn4LB+nCZ23kjsfNgw6dVRYu/ptY0H5s3bdpk6sO/By15Xkf6yFlve9PbDoL15xfe6YKJJnikKlH5+uuvzb54k/JvxKcVRo7QlcNjs1PlcViOdePflvXhwCq3M411Y72YhyLC68LrxwFY1suKNM+Ly7asFYZo9ea+WB+eq/1bs83w2nLOa27L87pTzNgp8ji8TizDvx3rwPrzPPm34XnZ/VGsmM7rQNcW7wnukx0J55VdT1LZNWVd2P6YzjmPEawr4fViWdaFbb6u9Yu1zdi/DffLa2P/DjR+qAn2bygqJ67PxvzDcHAvOzvbTGz8l1xySZh1yjQ2kmA6Gwof5SmUvFkIxYjpFt6ItDh5o1YFy9OFELQ4WZb7rwoKIBsuGyAbJ8WUwsl9UXztSHk0KMKsK28IdhZsvBQmdkhsvIQ3DbfRBcL0v/zlL2Zas2ZNmOjymnAQluTk5Bgr/7LLLjOWOK0U+v1pxb766qt48cUXkZubW+01IRR83kSso4U3JfdH0WTH0FDwurL+tgMn7ASsyLBu3M7rY7nooovMnDd6EOajWFgooISRORZuD+YJYoUo6O/lMg0JXnu7P875t6LI1Abui23OChTrx+OyfdUUduS8t/gkxf1xX7wOvG4WngvPg8ew17UqYqlfTdsMOwLW0cLOgkYO6yWqJq5CzT9qMOpjxIgRJsqBlqmFNx4Fl+IZpF27dkYUrVATLlOIrPBzMC4yTyRsgLQAaM1bkawJFE2GvKWnp2PkyJEYNmyYuYlpRfDY0aDoMAyPlv2VV15pLHkKN60jWikWWhoM82P9eBPQEuEAFS0jHsM+dfA68tg/+tGPzEAm90XBZsOn6DEKhB0Zj8Ubhh2JFZ1oVCU6FE/e9LURkFjhMXh8PrJHYuvGjjVodfFa0JqNvOb2CcViRYlPMVZkq4PXIejv5blb8bPXwe4rFtGLRqRg8tzYNtl2q/pbEeZh+6XbjxPbMZ8M2dkT7ovLvG62nmwXPCe2kViorn61aTORebl/3k+sm6iauAp1JBRjujZoRbOxsRHwxqPgWvG107p16/xSISjutBhpGVnhr84qJmxsFDl2Bta652N1dbBBsSzrHOxE+KjJToSNjQ03FtiIGW9LaAnZjoXH4OP/2LFjzflce+21xgqh2LJRs1w0KPa8cfj4yo6O9aPFybqxk7CPsZXBsrRsGgv+Ddmx8FpQeBgyZgXG1o1PCVaYOPFJI9r1DlrlhNeNTxwUdStudG1UhRU8Wno8Pq8/hZpCY8WP1iL3GXm8eMB2GAzPY+ceFFXC+gat1fqub2O3mTONRhVqwobDBkTYAGkRUXCt+AYnWuPMT2GiuHOdN3htoCXMfdLSZScQtOqjQQuDU2Uj60GLNxbse0YsU5lvm7ADo4BRJCKtRcKOjS+3UJC5L4oKr6e1PnkDsyNgvSvDWjb1TU1EgeLIpwc+dbD+fAqgyNi6sROywhScgo/dlcFrQV8r87ODri7m2FrrtAhZB67zXFhHLlOsmc51e51dg3XjkxfPwbo96rO+DdVmRHQa/UrbRzILrVMOVNX0cYj5Wa6m0G1An291LhM2evqlKZxB358dwOJ21j0avEmCL4BSTK1Q0K1hbx6mB/PRCuIjOy3poD8+CLfzuBycsQLDjsRaO7R8eFNFE3lLUJgi4XVlvaI94sYC68E6BIl2HAuvBTtqigDLVVW32kAfKZ9SKnNTEdaBosb2QOvbChzrwol14TWm1eoy9gmAT1m8x+ozrr4h24w4lUYVaooeH0eDPmnrEnjvvffChJNWtPXnWkuNImnhAB/3F8Ra6MEBJzYiWmsWezMyH/NXBm9URpGwcb7zzjvGN87BPlribLQcQGF5ivaKFSvw+uuvlzdiDjRynY/djBb585//bM6F4svoBAst49dee83k4b7ffPNN48emcAXdLRaeP8PUuA8KGydGG/Bpg1Yjt3OfTOPTQGXw3ChgtNyDg6IUSnYE7IQqG3yrCgoc68ROyfpdea3pignCQVB2ZhYuU+DZwbBuFBiWibSCeW6RnUAk3Bf3b2F+ildVHRehCFPcOFlBtgLOfbIdVPfEwPqThhyIrQrWlfC+iPQ5k7rUr6HajIhOXMPz+AfkgBGFkhOX+TgadF9Q7NgAGG5EwbJ5eeMyH0WRNwgnCp/dzigRNjwKgo1D5kShoGuDedjL029LUbdlGQNKIaArpDrY2FmeNzoFkqJPEeSbhEwnvLEpDLYerCcbM4WGljhvClrAFH36GXnDW2jlcTsFlsts6HQF2AiHIOxgGJvKSIhgNAQtdFrl9rVy1osDTbwWVcFrx86Ag6LsRHgO7OB4fqxrEN6M7IRomVbXAfBcea24X+6TdWN9eT14PB6X5xyMw6UQsvOxQsNjcJn1sjG9nJhmrTZauLxuPP9gnVhXRtjYcvacgtEH0eD1Yr3YfjgAxznhnMLHpxz7NyfRrgnPn38ndpw8NuvI7dagiOx8mc52zr+7PV4klYXnRcMen9ea1zzyb1XX+sXaZir729h03iM8rqgc/XqeEKcx7KzZ8enXDZs2Gg0Q4jSFVj6tYD55SKSbNhJqIU5T7NhMfQ4iisZBrg8hTjPo7qDfmeM9fInKDhqKpouEWgghHEeuDyGEcBwJtRBCOI6EWgghHEdCLYQQjiOhFkIIx5FQCyGE40iohRDCcSTUQgjhOBJqIYRwHAm1EEI4joRaCCEcR0IthBCOI6EWQgjHkVALIYTjSKiFEMJxJNRCCOE4EmohhHAcCbUQQjiOhFoIIRxHQi2EEI4joRZCCMeRUAshhONIqIUQwmmA/w+Cj9dAfYygwgAAAABJRU5ErkJggg==;" vertex="1" parent="upza0JuViuWNQ2w0Z_TN-44">
          <mxGeometry x="6" y="5" width="179.79" height="149" as="geometry" />
        </mxCell>
        <mxCell id="upza0JuViuWNQ2w0Z_TN-52" style="edgeStyle=orthogonalEdgeStyle;rounded=0;orthogonalLoop=1;jettySize=auto;html=1;" edge="1" parent="1" source="upza0JuViuWNQ2w0Z_TN-45">
          <mxGeometry relative="1" as="geometry">
            <mxPoint x="675.8333333333335" y="906.1666666666667" as="targetPoint" />
          </mxGeometry>
        </mxCell>
        <mxCell id="upza0JuViuWNQ2w0Z_TN-45" value="C" style="rounded=1;whiteSpace=wrap;html=1;" vertex="1" parent="1">
          <mxGeometry x="701" y="818" width="120" height="60" as="geometry" />
        </mxCell>
        <mxCell id="upza0JuViuWNQ2w0Z_TN-48" value="" style="group" vertex="1" connectable="0" parent="1">
          <mxGeometry x="25" y="883" width="175" height="173" as="geometry" />
        </mxCell>
        <mxCell id="upza0JuViuWNQ2w0Z_TN-43" value="" style="group" vertex="1" connectable="0" parent="upza0JuViuWNQ2w0Z_TN-48">
          <mxGeometry y="27" width="175" height="146" as="geometry" />
        </mxCell>
        <mxCell id="upza0JuViuWNQ2w0Z_TN-22" value="" style="shape=image;verticalLabelPosition=bottom;labelBackgroundColor=default;verticalAlign=top;aspect=fixed;imageAspect=0;image=data:image/png,iVBORw0KGgoAAAANSUhEUgAAAXQAAAEdCAYAAAAcmJzBAAAAAXNSR0IArs4c6QAAAARnQU1BAACxjwv8YQUAAAAJcEhZcwAADsMAAA7DAcdvqGQAAD3MSURBVHhe7Z0LeBbVnf+/3O/hGuQSJBKIErmDQkAF7TbQVixb6rZ1o20XbVeQPqW6/1K2K+Luetmtso8WfLywrRitLaVLpVaIWqEWglyVS9BAIEAgQIBAEi4Bgv/5nndOMu+bN2/ekPv4/fAMM3PmnJkzk3m/53d+5zczzT53gMu5c+fcJSGEEE2N5u5cCCFEE0eCLoQQPkGCLoQQPkGCLoQQPkGCLoQQPkGCLoQQPkGCLoQQPkGCLoQQPkGCLoQQPkGCLoQQPkGCLoQQPqHB3+WSm5uLP/zhD2biclxcnEkfO3YsvvGNb5i5EEKIqmkwQad4z507Fxs2bDDrVsg5t2mE62lpaWXbhRBChKdBXC4fffQRJk2aZIR73LhxeP3117FmzRozUbz37t1rlrmNwp+ammrK+I9spP1wPEbftQBrCt0kIYS4Supd0CnQ//iP/2iWf/SjHxkBt26V5cuX47nnnjPL1jJnHpb56U9/auZVk44FgwZhUMg0+vZ/wKxnViK7xM0mhBA+o95dLrS2aZnTKg/1j9NqJ7TOvVDoKei02CnykaGgz0LaiBSkDuvpppXg+LY1SN+Rj5jBM/HL/5uD5BbupnqgcN0SPParZej8D6swP8VNFEKIWqZeLXS6TaybpTqDndOnTzdlWDZq10vS1zH/3+a70xNY9IcP8MeHk4Hdi/G/r0dj6dce+bvXYuXabHdNCCHqhnoVdEaykKeeesrMq4MtY/dRfdog6YFUTHaW1mRnBpKEEMJH1LuFTq4mYsWWqdHgaAvKeiiuz31+urvuJdy2bCy510m7dwmyS3OR/swsfH18wE8/fvIDWPCOx/rPWoL7nPQpT2eY1bRZgXyDBi1w9kzcfZWtE8/+SzKx7Of34fabmWc8vv4vacg0YwCF2LZ0Hu67fbTZ3+jb7ws+rpf8DKT9/AFMcevIsYSfvJKB/FJ3uxDCN9SroHNQk66Tqqhs8DOashHJPQ7uOa5Dp8B6jSjEmsdnYVFWT9z18LN44qd3Y2DRGqT96H48tc7N0msS/mnhs5j/rSSzOumfn8WzzvqzC+9CICUSuUj74SysxETMfHQ+Zt4Ri9wVC3Dvz5ch45WHcP/r+Rj5wGN4dsFMjGrtiLb3uJYCp0FKvQ8L15Vg1D894Rx3PmaMaYsNT9+Hex9Pd85ACOEn6j3KJRJ8kIhizoFTG+3ihduii3QJQ2k+0l9Ow5quyUidluwm1oANi7EMs/Dai45ITp+Ku+9/AksXz8RIx8JetmJlQCxjEjDpzqlIju9sisQNnYqpzvrUO0eiyj7KhjRkj1uEpf8xA3ffmYo5L76Gx6bFoHCFY5m/1AOPvfky5tzj7OueOXj5afe46d6ehNMg/PxnSOs5B6+tWoon7r/bOW4qZv73UrzycDKy33gSi0MbACFEk6ZeBZ0WdiRBZoji008/bZYp6Ixs8cKyUbtrMv+IBf++wJ1+gvv+bgpmvdvTEbRfYkaim6dGTMWsh1MQ464ZRkxC8mDHds89ZHoCNcNpJO7x2vExmDhhollKuudeTO1qFgPY4+475Mi6y4638Jaj76n3zkRSiJ8paVoKUpwabt2hsQQh/ES9Cnrfvn2NKEfygzOixcafM1zRNgC2TNTRMR+nI21pmjutxKH+M7D0vaWYMzFIgq+eMQORUGFXMYihMb45v+aCHmb/Me0Dlv6N148083Lc43rI37EL25x+Qrnf3jPdGvDZb8urebMjhGg81Kug06VCnn/+eTOvDFrhFHQ+MWotclvG7qNK7lmEPXv2YM+nO7HqqbsRk7kQD81cgszaGgxs2SbMAGstEmH/baKIoS88V+T8n4S7/8367cNMU6v25Ashmg71Kui0rm08Oa3vaGHeq4lfN7Rog4TpT+DZB5OBdYvx1K++GG6GgOjnok2c9duHmcZUP9pICNF4qfdBUcaT0+qmxR1u4DMU+5QomT17tplfDQnfn4+ZE4CMl57Ckt1uoqET2vR3ZgfC+L2zPD7pGhCNRV3bxCUmIQ6F2Lp9m5sihPA79S7oFHP7+D4FnY/7h/Op03fOaBeKOcuEe1VA9UjAjJ/OQHJBBhY/vcQj1DfiRrqk163FW0FCX4j0pWkIRJDXjLi+CWZ+5lw9BgqOm4jJA4DMNxaGNGAOjPj51bJaGLgVQjQm6l3QiRV1G/XCl3VR2DlRxAcOHFj2Nkabt2Zi7jJ4JubMGonCdYux4FdW0mMw8SupjtxnYOGM+zDvlWVYuXwJ5t07Bc+2mIRaefVKUgImObOVL/wMi5evRNq/L0bw22rqgBbJmPlwKpKc83rqu1/HA/++BMv+5Bx7kRvx85dC6D1lQviLBhF0YoWaL+JiZAvXKe5WxDkoal+ry/XaYuTsOZgxoBAZLzyLNNdEjbljPl55LhWTOu3Fsqfn4SfPLEN+4mN45dFk2Nd71Yi4VMx39p98cQMWzv0JFm8L98Rq7ROTMh+/e/NZpA4D9q58CvPm/AQLf5+NNhPmYOmzM5xGTAjhJxr8i0VCCCFqhwaz0IUQQtQuEnQhhPAJEnQhhPAJEnQhhPAJEnQhhPAJEnQhhPAJEnQhhPAJEnQhhPAJEnQhhPAJEnQhhPAJEnQhhPAJEnQhhPAJEnQhhPAJEnQhhPAJEnQhhPAJEnQhhPAJEnQhhPAJEnQhhPAJEnQhhPAJEnQhhPAJEnQhhPAJEnQhhPAJEnQhhPAJEnQhhPAJEnQhhPAJEnQhhPAJEnQhhPAJEnQhhPAJEnQhhPAJEnQhhPAJzT53cJdx7tw5d6nuKdmXjrTX/4i1mzKxa3cuCp20mLgk3Jg0CVP/ORV3D40NZKwEU/5/l+GtdVuRmcvSsUiYOA53TZuFGXcmoE0gmxBCfGFoAEHPRfq/z8NjSzOQ76ZUJBaT5r2Cl7+f5K4Hk//OAtw/Pw2ZBW5CEDFIuu9JvPZvKc6SEEJ8cWgAQU/HgkGzkMbF2CSk3DEKPY05fQbZ76xERpnKj8ScP/wOM4e6q5bdi3HfXQuRYVZikTwtFSkTY1GyYSWW/NY2EjFInvc7LP1+glkTQogvAg0j6DcvwpkfzMXPvp+M2BZuMinJxOL7v46FGwKrcQ8sxQf/LzmwYshF2g9vx4K/cNkR7Z++hqX3l1vxhe/Mw9d/tMzJ5dB/Bl5ePReTvPsXQggf0wCDogm4e8nv8Oz9IWJO2iQhdfpUd8WR78zMgDhbdryFt4yYO4yYgbkeMScxX5mB1HHuyoFlWPu+uyyEEF8AGkTQk4ZWPmQZ076zu+RQ6hjt7iLJ3bwB29zlpAnJqOhhT0DyhJHuciHWfBxwzAghxBeBBotyqYzCFT/B6H9ZGVj51iLs+Y+UwLJD+vxBmPVGYPnu5/bgia8EloNIX4BBs4yHHkiZj/WLUhExXmZbGh79vywk/v3jmNbybbz2zkfIK3bSW3fFsK8/gG8O7Qic2IrfL38P2w9zA9Cx/wRM+9ZkJDqbvOTveBsr3v0Eh05fMOst28ci8Sup+PbwrmZdCCHqkkYWh56NZctdMXeYOsb6T0g2Du1zFzEScfHuYijxcSjzuheWmHDIaDifmYbn3t6H2DFfw+Txieh6uQDbly3GH3dsRdpLK7Cv7XBMvnMyJiR0RPGBdUhbuhbeIJu89Ofx/LKPkN96ACakfA1fmzQWvVvnIy8vIO5CCFHXNCJBL8S2/1mAxe6AKAbMwN1TvYGHJSi57C6iLdpEM9iZl4/j7mJVHNp/GVMemo1v3jEWE6akYs69o+FIN7YsW4EjQ76H//ddR8xvnoDJ352Jyf2dAke3YmNeoCywDxu35gNdxuL7D30bk28Zi7F3fA0P/ORRPDBe1rkQon5oJIJeiDX/dT/uX5QRsKi7jsScp+ciOUi0c5G/2V2MlgMlKHIXq6LtsNswyutCSRiK69tzoZ9jcQ8wSQE6YvTgfs68APlHAyllXDyPoivusqElOsa0dZeFEKJuaXhBL8lE2o/+AQ+8vM0V8ySk/scrmDnCbPXQ2tnmLkbL4JjI/nMPffp6RZu0Q1tqcZc+GBCiyW3btXOXLANw8wjnSOe2I+1/0rD6kzxcCBJ2IYSoexpW0A+sxLy778WCd7ID67GTMHfJ7zA/Jdwznv0Qd727GC2dY6J+WrRlZVeieUt3ITK9pzyI2Xcmoeu5LKxb/gKeeHwh0v6ShcAwqhBC1D0NJ+i7l+CB7/wEy3YHhi1j75iDpX98GTMqDWmMQZsydd6F3KAAdQ85ue5TpA79+6H+nhVtidibv405P38Us6dPQGJMAbLWpOG5ZZnudiGEqFsaRtAdMb/vu09hjXlOn+9eWYQ/Lp6J5Ij+kVgk9I9zlwuRvc+16kPIPlienhzfEI/+O8I+fDJSf/wgxnYDLuzaiu3uFiGEqEsaQNCzseTpxcgwMX8xSJ71inmRVoWnRsOQPGJSmQslY1NG8FOkBsc6d9IDjMS4sfUl6MUoDo2PbN4VXTo585ZtHYkXQoi6p/4Ffe0ypK1z1W/cTMz/8cio/dz40kTczZBB8pclWPxOsIoWvrMYS+yrAe64C3eFvtirzsjCil88iv968U2s/ttH+Gjj+3j75eew+oDTrxgzIcwTrUIIUfvU+5OiGf91O+572bWtR6QgdVjPwHJYYjHxgZmY1MtddeCTpLf/y8pARAzftvitGZg6LgaF3rctdk3G3FeXYsZgkykynidFU+1bAwx5WP0/L2AdJuDBH09GbzfVUKFMAbYufxNrP8tDgfscUdsuvZF4yzcx7eZYWehCiHqh3gXd+/h+1TjC/LYjzInuqoEPID1UHrMeigl7fK2SSBkhhPAvDRflctXEYOSPl2LVa/Nx98QkxLmx6fza0aRvzcWiNysLexRCCH/T6F7OJYQQ4upogha6EEKIcEjQhRDCJ0jQhRDCJ0jQhRDCJ0jQhRDCJ0jQhRDCJ0jQhRDCJ0jQhRDCJ0jQhRDCJ0jQhRDCJzR6Qd9asNVdEkIIEYlGJ+hvH3k7SMQf2jwraH1J9ivukhBCCC+NTtA/LtiG/9z5H+5aMBT3Px/5s7smhBDCS6MT9H8aMMPMQy3xvPN5xlL/1yE/d1OEEEJ4aZSvz6V4k97tehsRH9V1VFCaEJFxvzZ1ylnsFuaLU6JStr72KFZgGh6/d5Sb0rho7PVraBqFoNOVMrLrSMxIuN9NqSXSF2DQrDR3pZzURXswP8Vdaeyc/jVmb3oRW9zVchIx+6ZX8Z0u7qrDkZxn8MsDq7H5YhGK0Rrx7Sfje0MeQUrn1m6Oqik+MB/fy0rHEaTgiS8vwCQ3PZRK853fjN9sfxJvFB7ByWZ9kNLnZ3gkaQw6uptJcfbD+MaheDx722wMqfU+oivm3fWjLyNvNRa+sA6xFT6zWJGaCGbeqoV4Yb35+nsQFT/vePVI0CPTIC4XWtt0qXBuXSlL9i2powFPfsZuD/bsCUyrfpqMtFmDsCDd3VzrpGPBoFrc/7mTjkQ5NOuOxFZ9PFMPtG5mchiOZM3G9/b8HmsudsKwLlMxtUMPFJ1bicc2PoDfnHQzVcWVnXhjP0W6CirNdwTLt83G8+eHYPbI3+ClfonIOjwbv9hX5G53OJ+O53M+w9TEuhBzh7ztyHQs88Qh+sFHhCL/6EKsDnR8a5FETHv8cTxup7937oH/exQLV1XzQHVWP3/TIIJuBZyWOVl+yx/MvDJRZ77/3BU8UMp80z/8RlAETDQk3D8fc8cBaevqTNFrl0uFAeHs/Ah+PWm5Z3oG0zubHA45WHt8s2OVd8LUQb/GL26ah5+NX44nr4l3tmXhVzlrAtmqIGv3f+PXlxBkTYej0nxn0rHmLDD9ugVI6RGPIdf/EFPbOk3cyfL+xZbPnsOOLo/g+33cBFH39J6MOY641paVXC1GpmLaIKDg0+0Bw0TUKQ0i6PSJG7/4hbwqRd2GMYaGMzIfy2879cWIUx/dgeIcAeM4644+nTqZVTIkpooyXk7+Gs8fycLoPt/D7W5SWCLlM3VIRJ+yhiYevR1BL+P483jx5FD8IGlSlY2G8A+jhiQCp/Il6PVAvQu6cbM4QvyvN/48alEPxQ6QXh3ZyN0AJPdLcNfLSZ8/CIMGlU8V3SYBd4o3z6D55ZkC5WeBXnu6dYK3Z2PJvW6aO933Sra7rXJyzua4S5GIR3KPREckc7B6XzpOljpJ5zbjpVxa5t0xtXdlnnCXK+vx/CcvYkure/DDwdejUo97VPnycMKx0gPkOH9fx5LnXXYlC69+9gb6xM/DpHaBrdWDvvFH8eijnum14Mac/tVHX1gHenHZzWeetG2BbaHQ3/voo2moYA5sS3PSQ7r6Js1z3ArltiItiu2si6kj85TVPbRs5XUOWzd7Xf5ndbBgmrxuPYz7wu7XzW+uUwHWvRA4ZgWXiFvG1qnaLpNKMOcfWldD4DosXLWjFutX9T3j/dsE7gmbt2m6e+pd0P/XEWvGmf/ZsbirEnW6Wd4JE3fOsldL+nxHcMfNxfz7vYIeENtZ++Ziletr37MotYKvPfsVR6oXlfvj97w9F8lvzCoT5pQFTF+EVGeZA68mzwKOvnL/U/DUgEVBZSs2KZWz5fB3MP7dZIx/7048sukNbAkZv44f/DJeih8PnJ6PqX9x8q2bjV+fj8d3bvwNZkd0bxRhzZYn8JvSRMweGsmvHUW+LpMwvm0RVu5/HlvOnETW3hex8kKgQcn57D/x+xaP4AcJ5T2IqDE/Xnegs8w/Ow2Je1YEicOoe530Byegq7PMgTjmq7GbgcL4f/mY8KA97uPGhVCGqdsK5I9/0LM9CyvCNBb5axcic4i7HzOoRzEJLkufc6WMTHL6PwXI/MSrNHnIZzTPqUxs9yRv3ZkFDEpCxZGE3pj8Y+c45jp1LTuvOVM8cUC8rr8Fvu2pU8H6FypvaKrA1KVbrIk0CljrwXUleavWIss5u4lThtZO/aK8Zyw0AN7Et8vyThvExiRMg9/IqXdBH9F1pBFwPiAUTtQp+JZQN4tlW0F17qwMPPW1cqt41hvJmPtvM4LFND0NT20ISU+Zj0X3OJb2a0scOQ6QcP/S4OiYxBlIdfJkHKrK0g70ClIneAo7ZYMblfAUXwHGx0zF9O4pmNS2O/p8fhLrTz+P2RueQEaJm8mh+MAv8FjOeuQ0S0RKdyd/lyHOzyMHv/l0HpZHGBTNynwIT5w+idF9/xXf6e4mhiG6fE4DMvpJfBMr8bONd+KhA0cwetBLmN1pOV46DNyTNBXFnz2M773nNDhO4/TNvz2DjPNu0Qhsfc+x1gaFRjaMQip/9KfW4f2rFJpoyDuW74hREoZ59GTUvallQmnq1m0Cvu0RnFH3OsLhyNPaEKuxoPvE4AYmLx/5jmglDffsfGRqhEZoFJJC/dHbMpHVLRGJ3QqQf9RNc2Qoc49zi131wHAipnlDPUd+CRO6OffAzurLG63eFXscYf6Wuz+zL0cs3/PuKw/bP3X6VWEboHBUXb9q3zNOXm+jMerv2KBkIbMO7626oN4F/Wt9voYZA2ZUKuoU8dolOMplz9sTsZYC73WVrHMs73tSMSPEOErolwxsyC0T9ADBrpNZbzhJ+w6F5AklAXEciJ11H5Y4xkp1GDLkVfxi7Dw8PGoBnrj1T/j9hAWY3sLZULoSKw+4Sl2yEr/IWuncfmPw8NhX8dgoJ/9NL+OXgyahT+lmPPPpG2EjVxh6+NjhLPTo8iSeTKrcMow2n6H9JPzglnSkfzkD6V96FQ/Hd0L6rl+gqPe/YuqZ/8S8g58hPv5VrBz5CIZc/D3mf7wckYNwIohT72FIukqhiZbe18Q6FuU6vFChq07cuk0MjXPvjVinXgX5wYLeNTY4F3rHIta4FaK3BEP90bR+u97wJSQ5jWzZdXAbithegdVqU0FYnfNhI34yGj84eyflLo4X1sdi2uNzMLns1Htj2A1OH2pPZvk5m8gkR/T/LsoGqMr6Vf+eqZDX/G2cXtWxqs+4MVHvgk7BZrx5qKjX2wNDjmW8dFEq8EaaK67ZOLTPmb0xq0yk7TTl6QxmKCPgI5+CtRNXlTUQtOKrJgEzXmPe8t5CNP7zsLRPwfReAVFdc2aHmSN/B9Zz3ikFkz0ejY7xk53mzOFcBjLK/NqWHKw8mO787yyd/hlS6M4x08+w3GxPxzyuf7gQr0aV79cmTyjFOU/gpQv0uSdi87F0HOnwfcwemIjuPaZjdtwYFBevxxZPT6MCRpwaEMdiNt1/dtWNSHnE162b9deXT+5DTSHEXhN6jzsW4+MPOtZluQhW6dYwbhdrOVK4Aha+EXpXJPM+yXR6DcG9ivojJGzx8fLejKX38KQg67fW69vQ90wDUq+CTjGnX5zhhl5Rp7+89i3zCMTHBYTOkIB+A5zZPR7/dtA0H8ZRkr4g4K5xrP2lUbhKwhHwsTuT06BkPD0lqJdQHS5+ftHM+7RqbeYoLUFxYKkSCnHxsrvooXVQXLuduiPgUWmNeLPeCu0q5OEUmq91xUHSK+vxq307kDzwexjSPAd5FO6yckD3No6phBM4Gcnt4lpKtY2xvKPFDft7vEx83QEzt27WX19hiurhF9en7eR/cLwjc1XGbAesf2NhGneLK4RG6B0hywu4L7reMMzJ2UhxrufEQdZKroP61tE90xSoV0GnW6V3295GxK2oMy1abF6vX73X1Vj2Obnw2t7GtfJGhmNrVpd0ZNDlUl1S5psHnKp21RThyJkQh8S5dKw8FrCFh8QMNXP0GBZ4UrMoHasLTYqhOGd14DxbDENiWSihJR7Tx3nj2u30iPvU5yT8gOvjHsI/RZXvHoSOve7c+TzWdvwRfhjHboMj5K2cWSmfYg1wsoRmbDx6xwTWw+MRsFBq/BARBdBddDEDeJVC8aV/3PqrI9TtKug9ZU4gZju0UkG4LouT+Vht3C1WCFkXDphuR/6pEL98I6SsR7Htfac3w8HQ2qxvXd4zjZt6FXS6VX45ZlGQqEf7YBB97yQ0v02PmqwluI+vA/D4zBPuT0Uq0jDr3vIBUINjlZdFuRirPgNr/1qew0TMuMvluP7yoAeX0rEgyBrPxpq1jtQO6Fc+CBuWk1i7/U5M/csDeGzrE3hy/XfwzXXzsbzUqU6XJ/HIANe/0mE6vteXYYub8czG6Zi36Qk889F38Z09a3DEEdLpCT/AaOYrWYNnPkjG+PcewPLTpmTdcfJFvHisD34wNMWNOe+E8bHj0bHoRfxibxZOnliO53M3Iz52MiZFvAsdEf2W6/II8mNvRRpD2wZNu7pIFjdiZN1vPREP29KwYo+77JK3Ki0khNGxisv8007dJlKYVlSwqre+FoVfPG810oLKBXy/FXztIRiXxalMZJ70CndA6As+zUR+NO4L138fHDFTj7iuo7Vr88MPhtaofnV0zzQB6t2HHirq0dKrbWCExxuDHp2YB0e5DPraU0hgSKEJJ7SkYP6eVZiLpzDF5uP0WhxSbTbX925cJe72jAnhfOgJmHEvffSuT94KeZCP3g1hDKpDODohvuMQdP98J9JPrsRKxqS3HIKp1z6P50cHP5yTmPQyXhr4TUxqVYTNp1dieWEOOrVPwcNDXsXD/T2O9XohB7/Z/QY69X8YKZ6Y844Jj+HZXtchK+e7mLrtRRzp8AgeGzbe3RoB4/JwQ87K/NRuuF9Ubo1wlEc8vGD3uTMpTNhgflkstJlMCKNnkM/1sWP9C+V5nGlt7JcqilQY8oPKBc4pKEQvHGZgj1HawcIdEHonvXsgRDAyo/Cl8U4D4B6/tuLMo8c9vlPf8NZyDetXJ/dM46fBXs5FYWaYYjSiTlcLGwHCMrTS2SDwVbrVcdkIIRoP5mVenybpbZi1SL1b6BavpR4JbrdizqdHrctFYi5EU2Yr3l/fyAdvmyANJujEijqjXUKhkDN9+a2BJ0cp5AxxZBrLSMyFaLqUPxkqOa9NGtUHLux7XkioYFPQJeJCNG3K35nOePWKMeqiZjTKLxYJIYSoPg3qchFCCFF7SNCFEMInSNCFEMInSNCFEMInSNCFEMInSNCFEMInSNCFEMInBAl6s2bN3CUhhBBNjSBBb95cBrsQQjRVJOhCCOETghS8RQt+fVgIIURTpIKF3rJlS3dNCCFEU6KCj0WCLoQQTZMKgk4rvXXrCt9vF0II0cgJOwpKK71VK36iXQghRFMhrKATCrosdSGEaDoEfeAiHFeuXMHly5fNJIQQovFSpaBbKOylpaVmzinKYkIIIeqJqAVdCCFE46ZSH7oQQoimhQRdCCF8ggRdCCF8ggRdCCF8ggRdCCF8ggRdCCF8ggRdCCF8ggRdCCF8ggRdCCF8ggRdCCF8ggRdCCF8ggRdCCF8ggRdCCF8ggRdCCF8ggRdCCF8ggRdCCF8ggRdCCF8ggRdCCF8ggRdCCF8ggRdCCF8ggRdCCF8ggRdCCF8ggRdCCF8ggRdCCF8ggRdCCF8ggRdCCF8ggRdCCF8ggRdCCF8ggRdCCF8ggRdCCF8ggRdCCF8ggRdCCF8ggRdCCF8ggRdCCF8ggRdCCF8ggRdCCF8ggRdCCF8ggRdCCF8ggRdCCF8ggRdCCF8ggRdCCF8QoML+ooVK3Ds2DGz/O6775qJMI3biouLzboQQojINKigU7Qp2FbQz549ayZit9l1IYQQkWn2uYO7XK/s27cP27dvN6LdsWNHdOjQwYi4XaaQc9s111yDhIQEDBgwwC0phBAiHA0i6BTz9evXG/GuCuty+fKXv2zEvSrOnTuHv/71rzhx4gRuuukmXH/99e6WymF9Nm3ahM6dO+O2225D+/bt3S1CCNF0qFdBty4UWua0xlNTU90tlcMy9KVTzIcNG2as90gNgVfQ+/btiwkTJqB169bu1opcvHgR69atw+HDh9GjRw8JuhCiyVKvPvT33nvPDHpa14qFok0r2TtZv7rNx3WW5T6igQ3A6dOncfz4cTclPNxeWFhorHMhhGjK1Kug08Lm5BVzijctcLpgvJMVfgvLsGxycrKbEpk2bdqYMrm5ubhy5YqbGgzTuT0mJgbdunVzU4UQomnS4jEHd7nO6dq1q7GcDx06hEuXLuGGG25AQUGBWbdizwFQCjHFvFevXqYMXTScjx8/PqgxCAf3e+DAAXTq1MmUOXjwILp37x62HK3z3bt3mwFXljt//jz69++PVq1auTmAy5cvY8+ePdi4cSM++ugjs0yLvkuXLkGunMzMTNMQsWE4cuQIMjIyTBmeBxsMO+jLNE6fffYZSkpKjJunRYsW7l7KOXr0KDZv3owtW7Zg69at2L9/v3En8bje+jHt/fffx6lTp8z5ciyA9eC58DhFRUXG9RQKG7L09HRzbNZBCNH0qVcLnSLnjTv3QqG3Uzjxpe+dZbmPaKGQtWzZ0vjHw8H0tm3bGkGjAIZCC/7jjz/Gzp07TR7649ngsCGgaFIsQ9m7d69poNhYJSUlGXcSRZY9EYozBZmDtbGxsdi1a5fZtxcek2lr1641gn/jjTeahqxnz55m3x9++GHY47LcJ598Yo7Dxqldu3amzhT6cKGfPAc2Mr1793ZThBBNnXoVdArI1WKjXew8GiieFE42ILSqvXDd9gJozYeDAkpr+5ZbbsHNN9+M6667DiNGjMC4ceNMA0Br3QuFlmLK/AMHDsSoUaMwfPhwk05Rp8gzjT0C7q9Pnz6mDl7BpWVO650NByN7WIb56WrixLxsCELdSOzpMO2uu+4yg81DhgwxjcCZM2dw8uRJN1cA7oOCzp4Lew9CCH9Q7z70adOmGSs8FApb6ICoF5ZhWYpctDRv3tyI8IULF5CXl+emBqDLge4UuliaNWvmppbD6Bda8BT80PrSrUIxZKPAfF769esX5IqhlcwGgw2L1/Vhewa0wm3vgIJMFxGjbBITE039vbA8LWpa3aENG89l8ODBQQLNvFxnI+GFYk5RZ4MihPAP9SroFGr6w70WqbXamW4HRLOzs02a16JnGeah4FcHCi+Fk5a2FV/6nSnWFFla8eHg8ThlZWUhLS0taHrzzTeRk5NjGgoKqYXCHWrt0+VDYea5cKDWC7d5objTmuc+woVOcj+sL+sfKugU7tBj03VFv7rX7cJGg38HNkq04IUQ/qFeBZ2RKxRlrxjR+qXVTT+xdwp9kIhlWJZTdaBoxsXFGVGzVjoFjdY100OtYEtpaamZBg0aZFwo4Sa6NUJj3MNZ+6SydC98JIDH5D5Dxd5CoQ9tSAh95t7BUsJz4zlSzGmVE15HXgs2cpHi84UQTY96FXTrMrFCbYWd6/QTe6dweViW+6gudJswzpzuDIoh3S1VWagUYE4Uxfj4+LATxbIy4b1aeEz2JEIF20IrnqIerRhbPzkbMVrnfOCKjUa4yBchRNOmXgWdLgAKM33pFGpGrYS6M0In5iEcJLQiX11ovdK3TTGjy4YWKn3nkUSRoslydIFQROsD1oeuGR6TbpVQKMgc4GS9wrlkwsG8bNA4aMoBUrqeaJ1X5moSQjRd6lXQLRQtulWsQFuht3DZhi5yzry02msCBwg5EMl4cYohRS4SFEIKX35+fplP3wutfIpkbUJrnw2P9d1TwL3Q70+3EetenegU9kRo9bOHwqdnWb4yV5MQounSIL9qijQFmpY64TLdKUznxGUr4AzVq6mYEwogGwq6XCho0Vi4DD2ky2LHjh3m/TAMY6TQ8kEePuxD10VtQ0FnZA4bEY45fPrpp6ZXsWHDBvOgEOvD2PTqwDJ0MXEglwOzV9vTEUI0bhrUTLNRLFZgOPcuU9y9kS41hX5jWt3R+o8ZNcKXdTGEkNY4RZXizqcrGUfOfdU2tJwZqz527FhzHBv9QzcRB2HZW6nuYCYtfzZidOVQ3KN11wghmhYN9j50Ub/wYSW6m7yuLiGEv5Aj9QsA/eccDKXbhZMQwp9I0L8AUMzpsqF/PjRWXQjhH+Ry8SkMe+TAKuPaOadlznfQSNCF8C+y0H0MLXP6zjkgyjc8SsyF8Dey0IUQwifIQhdCCJ8gQRdCCJ8gQRdCCJ8gQRdCCJ8gQRdCCJ8gQRdCCJ8gQRdCCJ8gQRdCCJ8gQRdCCJ8gQRdCCJ8gQRdCCJ8gQRdCCJ8gQRdCCJ8gQRdCCJ8gQRdCCJ8gQRdCCJ8gQRdCCJ8gQRdCCJ8gQRdCCJ8gQRdCCJ8gQRdCCJ8gQRdCCJ8gQRdCCJ8gQRdCCJ8gQRdCCJ/Q7HMHd7lBOX78OHbu3ImioiJMmDABPXr0cLdU5PTp09i7d68pw/yXLl1Cp06dTJlBgwahZ8+ebs7oKSgoQHZ2dtA+O3TogK5duyIxMRG9e/dGs2bN3NwBMjMzsXXrVnetali/2267De3bt3dThBCi9mhQQb98+TKOHDmCPXv2IC8vz6RRmCsTdObfsWOHyX/x4kU3NZjWrVtj6NChGDx4sJtSNSdOnMC6deuMkIejVatWGDhwIEaOHInmzcs7NdUV9NjYWNx6660SdCFEndAggl5SUoJNmzYZMQ8V5kiCfu7cOfz1r381Asx811xzDVq2bIkrV67g6NGjKCwsNPloWY8fP95sjwbub/369aYcrXvum/tiI5Ofn2/yUNQp6LTWLbm5uea4kWD5kydPmuVhw4aZKRK8NuypsIcQFxdnpqpgPQ8cOGDqOGTIELRp08ak8xw+++wzlJaWmnULG72+ffuacw3tdQghmi4NIuheYaYIUXjPnDljLOSqBJ2WNMWIwkoxt1y4cAEbNmwwIkuSkpIwatQos1wVxcXFZt+hrho2FJs3b0ZWVpZZj4+Px7hx44KOG4lTp06ZhoIuIu6bjUzHjh3dreHxCjotefY0eI0qg/l2795t6l+ZoDPd9goo7rzOPLc+ffrg2muvNelCiKZPgw2K0kq84YYbkJKSgptuuqlMhCJBYRo7dqwR61BRbdu2bZA4UaQpdtFAkQ3nd6d7hfv0imF12j9azRRzQku7KjH3wuvBRooNXSS4nY1AixYt3JSK2HEATmwgKPq8/uw5VOa6EkI0PRpE0CmQd9xxB8aMGWPEJtpuPwU9JibGXauIV+Rrq+NBobRiyXm0daV1fvjwYbPMxqK6ljDPhedLl01l58J0bqf4V8cvz7ycaKU3QAdNCFFH+CpskYOmFlrsFMSaQv+0HSzloGa07paaWOeEde/SpYs5dmVWunVTdevWLaKFHgp7LrTM2RBEez5CiMaPbwSdInXo0CF3LSC+VwutVvqft2zZgk8//dSk0cK+7rrrzHJVsKwdLO3evXtUA5vh4DmwR2AHZkNhOoW8c+fOUbuX6J7Jyckxgt6vX79qNQRCiMaNLwSdrgMKrxXRXr16mbjx6sBBxVWrViEtLQ2vv/463nrrLTPYSCuWg6sc0KTfORpondvIFg74RnITRYJRN7Ts2UCwfl64znSKebt27dzU8LCXwQFjTtu2bTNWPf3pLCuE8A9NXtAp5tu3bzcx4bRSGSXDQb+qRC4a6PbgRPHkIGs0MK9tWCjIjMi5Wmids2HiYCx98l5onfPc2XhVBd1PdMtwohuH5Xi9Dh486OYQQviBJi3oNlTRhvlRQEeMGBGVyIVC65sNwS233GIscj5IxIFDCimt/w8++MBY3lVx7NixMvFl6CVdLjWBDZSth3Wr0G3CdVrvPOeq8Ea5MLKI8fRMo+VuexJCiKZPkxV0Pqr/4YcfYt++fWadlifdIv379zfr1YWDg/R1M9acYZGMN7/zzjtNJA6t/bNnzxqrlm6OyqDlS0G3wkvrvKaDjvRxs2E4f/68OWfCOX3g1sdeXbhP1o3zUMtfCNF0aZKCTncDHzCieBIOWE6aNCnqJ0OjhWJJq9b642nN8mGoyqBbxgok3RvhHo66Grgv+vL5nhkKOevARqYmPnC6knh+oU+RCiGaLk1O0ClqdLMwJJCiRBdCNE9gXi18uMgrnHTzVIbX3UKXRm3Vie4gNg70z9NNwjmtc57/1cJeBHsUinIRwj80KUGnCPFRdsZfU8zs4/11GUtN0fO6WTjAGA7m81rvFGDvi7xqio0154Arz53rVwutcj70xDrXZD9CiMZFkxJ0WsDWzcKBT1rn0Yom3SFr1qzB8uXLy2LLCRsJxq9bv3co+/fvNy8RI7TU6asPB33c9gEgDmTSQq9NODDK8EfGyLMOdMFEC33ufB8NJ547QxeZxkantusphGg4mpSg091iXR4U0E8++cS8PCvcxNfa2ic8CQdP+eIuluO71O0AI+G2P/3pT8jIyDDb+OANQyFXr15t0liGVnFCQkKlFi3F3IY2UnyjiT6pLtbNUt2HpnjN6AriRFcVG0E+JDVgwIBa7UUIIRqWRvGBC/qEva/Frextixs3bix782FVhO6HAs2J0MLlNlqntMz5RkTvU6ah0IdN9w6nygSQli8bEsKPbPAlYkIIUZ98YcwzWqMMS2R0CGPMrauBFu/w4cON+4bib58GtX5qxqZ/9atfNfNI1qzXz15XA7RCCBGJRvMJOiGEEDVDDlQhhPAJEnQhhPAJEnQhhPAJEnQhhPAJEnQhhPAJEnQhhPAJEnQhhPAJEnQhhPAJEnQhhPAJEnQhhPAJjV7Q8y/ku0tCCCEi0egE/UBxTpCI//Xo2qD1zNOZ7pIQQggvjU7Q8y+cwOYTgdfQhkJxP1Bc9Zf3hRDii0ijE/SkLklmHmqJn7t8zljqY3qMcVOEEEJ4aZSvz6V4k/Yt2xsRj20bG5QmRCQuX76M3bt34+zZs+bLUYMHD67T7876Cft5Rn4foDHS2OvX0DQKQacrpYcj2tY6ry0OHjxovoQUym233YZrr73WXWvcfO7821u4F3sK9+D85fNo3qw5erbrieHdhqNjy8o/pPHxqY+R7ZTr3Lozbus1Ea2bBz7cEUreuTzTGyq8VIgrn5c6+29R6f4PnzuMXQW7UHy5CLxr2rdshyFdh6Bfh/JrWXy5GFtObMbJkpNmX9d1vM7kaeEsWz498ykOFh/ArdfchnbOPmoTK+b8QIl+9AH48RV+XD0+Pr7KzxfWRDAPHDiAvLw8d60cfrqxup9NrAwJemQaxOVCa5siwrl1pex21utiwJOfopsyZQpSU1PNNGrUKCPyFPu6gJ/TW7VqVa3t/5NTn2D7qe24UHoBXVp3QcvmLXHUEeENxzeYtHAUXCzAobOVf1LPy7ELx3D28ll0a9PNNKrNmjUz+1937G+mAbFw7OKj/I+MmHdp3dXJ3xXnneNvcsSbDQ65fOUyNuVvdPZ3Dsmx45HQaQD2Fe1DdlG22U7OXDxt0q7vfEOtiznh9ec3VLt37+6miHBQ5Lds2RL0pa3agA3pyJEjMW7cODNRzLOzs43YV4e6qp/faRBBz79w3Aj4WscyJ1+J+6qZVybqtOBDB0qZ753cd0xjUB34vc9+/frh6NGjbkrjhVYuLVmKeHJsMr7U50v4qnOterXvbYSRVnsopY6VvatgJy5dueisNQskRuDGLjdi6rVTMdGx4jnd3msS2rZoa8T6zKUzbi4g99whxyq/4ljcA3BH7ztwuzOxR8UOXk5xjnO8Szh18ZRj6RfhBkesezt1pGh3atURx84fc/fi/I0d65wNU78O/dwUUdfExMTgpptuqjUruTrwmPyGL4WZvSdRtzSIoMe27en6xc9WKeo2jDE0nJH5WL66gt6UOHPxjBHKro5FTIEkdF3079jfuDN47rSKvewv2o8TJSfQt31ftGhe7uaojFbNWzmyXy787Vq2R6sWrU0K3TuWK65nrlOrTmZOKMzeY1xxBL+FU8aOc9DN08ZpHCy553JxuqTAaUSSgvYt/A17SxcvXkRpaambIuqKFo85uMv1Al0s7OLHd4w3VianI+eOmPVBMYOc7vsenHBFmqJvt5P+Tp4OLTuYfTAfYR5O4Thz5oyxxOkvb98+IDIlJSWmC0jLIdRi2bhxIz744ANs377dTLQsOnfu7G4NdOfff/99bNiwoSwPu/d9+/Y121n+b3/7m8nHLqZ3+6VLl8w2TrYsB+oiWU10nRw9n2fOmSJu4fnTn02fd7+O/cr84ycunMDWk1uN0F7XaYDJw228bl4fdmXQhcPG9LjTg6IfPTEmsUx4afnTPXO+9DyuaXeNsczpCiq+VOwcKx692vU2/vNDZ3PRo20PU4eLTi9hX1E2WrdohZ5OI7715BZc65xHXIc4s8/qQOtu165d2L9/P3Jzc81UXFxsPuxtoX/10CH2JD5HQUGBydOmTRszMBoK/z68Dyg23gHT/Px8ZGZmGlcdy9q0HTt2lB332LFjQeV4T33yySfGzRZpO90RrN/evXvL6h5aNlKdw9XNXpfjx4+bY9oPmTMvrwfTeD/yfuMH0FmO+Y8cOYIrV66YfDwmxZb3+4kTJ0x55mUZ1te7PRL8vfFYPXv2DLqmTOM2pvPc6Wf31pXY68A5j1cb9YvmnvH+bbhvXjPmYx2917mpUO+CTp+w9bkmOd39SKJO4bJzYgWdrgav6FdH0Ldt22bmI0aMQIsWAZGzYssb4Ctf+YrxAfLmoK+dcyvqe/bsMeJ86623YtiwYejTp4/5gfHGozBz28CBA81NOGbMGJPPivn69evRrl07s39bljcTb+zKoHjmOdfl4ueXjEhay3dv0V6cvHDSsY5bIt4RU4o2xXjjiY34HFdwc4+xRoBpEUcj6B8e+xCbT2xyrmsWCi8XYWDMQIzoNsK4eixd23RF25ZtkesIdtaZz5Dl5D1feg7Xd77eDHqS1o5lz/rSVURBP3j2oNMgHcX1MdebxqXEqePIbiOrbZ2zu75z505z/fh3i4uLM9f78OHDOHnyZJk48IdK98KpU6cwYMAAXH/99WGFkUQSn9OnT5t98cfMv2VOTo6JlKE/mMdmI83jsBzrxnuA9RkyZIjZzjTWjfViHooNBZdics0115h6WTHneXHZlrUCEq7e3Bfrw3O14sV7i+LDOe9TW55CR9Hr1auXOQ6vE8tQpFgH1p/nycFFnpfdH0WN6bwOQ4cONb8d7pMNDueVXU9S2TVlXTg2w3TOeQxvXQmvF8uyLvxt1LR+0d4z9m/D/fLa2L9DUVGR0Q77N2wq1Hu/N9YRJrpKOMhG3+uYHjcZQbbul3DullCsmEcD/zAcpExLSzMTb/4bb7zRtMgWpvEm8abzRklMTDStO38sJCkpyaRb+EPs3duxTJ0faiRY/vz58+bHZWFZ7j8StIQppBdLS8y1efdIOv6c+2fnuu03PwwLxXuLY/0yUiXREU9GtlSH7m26G798x1adjNuEwr711FazXwuFecepHWY7G5eeTt1aNGtpGpf9Tn0IG4+bnL8nWZO3BtmF2cZH38FpiCjog7skYfeZ3VhxcAWW5yw351Pk1LkqaK3xx+aNbOCPl+MhFFda43UFhaNt27ZlBgFhY2HFiHXjdttLI9ddd52Zh47TMJ+3R0ahJV27djVzwu3ePF6sYHn90VymYcL71u6Pc4ZsRjIWIsF98d60Qsb68bgUwurCnhB/g/379zf74754HXjdLDwXngePYa9rJKKpX3XvGTYYrKOFjQoNNdarKVHvgk5rkT/sykSdIl6b8I/qjXKZMGEC1q1bZ9wjFv7wKMwUWS8dO3Y0QmwFnXB57dq1ZQ1EVpZjqYbkCYU3IC0F9g5oCUQLrerknuPRt0Oc8XMXXixCS0dEhzvWcytnTkuX/3YU7MAxR3AHdBpgrOvqwsHNCT0nYHLfyUjpm2LCFQ8VHyqLTqH1v93pWV3+/DJGdR+Fib0m4dZrbnV6Ajeb7btP7zZuNNLZscy/3CcF0+On465r7zJ12nV6F3rTJXOp2NnnXtMLG++c18XSi9jsNESh4wBeIokTRZbicDVCEy08Bo9PV0Eotm5sqL1WHAWW1jHvCy+8B7xY8WLPz4pxVfA6eP3RPHcrkvY62H1FI47hCBVWnhvvYd7jtiGpDObhfU63JCfe7+yR0uIm3BeXed1sPdlo8pwootFQVf2u5p4Jzcv904Jn3ZoS9S7oFGwKSKiot29ZeVeuNqFo06VCq5w3G28C/vAozFak7bR161a3VAA2Ar/97W+NBWUbiKqsbMKbbeLEiabRsL0FdtOjgVbvuNhx+Pv+f29EkoLLgczLjvXMaBRGs9ANQr8x486X5/zeTAw7LHWEkgOrKw++Zdwq0UAxZwPCCHgbnULLn+4funzYa7B0b9vdyd/BCD5dQOFgiGKJU0e6ZuhWi2nV2bhgOMgb3+k6FDuNFH3vlcEfJy2lhoJ/a/bMaGVSoBhKZ4XI1o2+eCtgnDZv3mwEJRSvlU8oGsOHDzfib0WQLpVIWGGk5cjj09qkoFOQrEjS+uQ+Q49XH/Be94Ytjh49ukLDwvp6rd/arm9D3zMNSb0KOsWc4YcMN/SKOiNWatsyjwRvHN5AxFrPFGYr0t6J1j3z00fHRoDr/IFfDTfffLPZ52233WYaC28voTocPXfUDIiyV9PSEXf6rtu0aBM0tXIaAoYtNnOs+NbOemsnX7SwF+CFbpZIT5+xMbni/AuFVjut/IGdBhp//MUrJaYxsr75di3aodQpV1k8PbGWUm1THfGgiDLsj+MivG84GEcxsnWjj9cKmHeK5uEXWpf0BTM/G/yqYrat9U8Lk3XgOs+FdeQyRZ3pXPf2GhoTrBt7zjwH626pzfrW1T3TFKjXs2a4Ii1xirgV9coGNMNh83r96vTPVhfbxbPQtcKBtOp2r5if5aoL/fB8wKkqVw2xA8KWg8UHjT+6bct2JvKFg8QpfVJwZ7+pQdPNsTebkMKYVp2MK2WsY+WHwgeH2Dvi06gWWsuBxrVZmTUe0yrG9BRYF/rSLbTKi52/JUWaxwmFrhha8KwnGwk2PvTLs4EgtPqZznOoDK+AhcLrTws1XNc6GmjFWWvbEu44FgoOG36KBctFqtvVQB8ufbmhrhovrAPFj/cNrXkrhKwLJ9aF7hhawY0Z26Ogu5O/Re/4Uk2py3umsVOvgs4uOx9e8Yp6tHHk9L2T0Pw2PVroZmH31usz5yPRZNOmTUECS6ucE7EWHUfELRxFD/WJW4vfOyDGm4hWncX+GJmP+SPBwc63Dr6FNUfXmAHRTSc2GUGk24JCWx04AMlrzv0xNLHU+bezYCf+dOhPxiXzQd4HePfwu06+InRt0wXXuo/08+/GEEbCsMgP8v6CtU59NuRvQOmVUlzb8Vp0axP8A+ErBXiMG93H/unv79WuFwpKCszAKLfnFO03A6ze2PZQKFYUOro87GPfhIJK3zMtvcoGESNBIaQw0xq2fmH+TTg47oUhbNY1QLjMhoBWIOtGIWKZUKt63759FRqLULgv7t/C/BS5UF97KBRriiAnK9xW6LlPillVPRDrBqnLAeVIsK6Ev59wg6E1qV9d3TNNgXoPW6Q1x4de6E+lqEdLn/Z9jIXOCBdvXDrTK4NhVPwDckCLgsqJy+zeet0mFFXeAAyvYnihzcsfLvOxxecPhBP9nHY7o2J441EQ+PSptZIoFHSpMA+tAYZrUfxtWcbGUgjogqkK+sBPXzyNYkdkad0y6oWDkVXFctPSDg1bpMvj4NlDpkFgeTYIfHCJxyi8GPCT032TEJOAMd3HmGULXw1A4TV5L51x/nbnTRgje1mcvA8nMf58y4ktzjH6Oo1CeeQA687QxeyifTh07pB5fcDo7qODwiPDwWvMxpchZ2xgKYJsMBl+xzBRL/zR0jKjpUuhqAz+6NkzY8w498t90nXEaBUKNI/H41JQvHHMFEyGHVpB4jG4zHrZmGhOTLNWoA2NY6iet06sK0MibTl7Tt5oi3DwHmO9eJ9xING6FzinQHLQj/ecJdw14fnTsKAbkcdmHbndGiihAQJM5++BQmiPF0plYYvhsMfnteY1D/1b1bR+0d4zlf1tbDp/8zxuU6HBXs7F7jtD8aIRdQo5XzBF7AcvaOXzVbrVcdkIIRoP7NWwgdTbMGuPBhs58LpfIsHtVswZo25dLhJzIZou7DXQqmZPRmJeezT463NpqXNgjpEuXijkHExjd55QyBkhwzQKucRciKYLrXMKOp/MtP5yUXMa1QcuKO72AZVQwaagS8SFaNpQyOkX57iVxLz2aVSCLoQQ4uppMB+6EEKI2kWCLoQQPkGCLoQQPkGCLoQQPkGCLoQQPkGCLoQQPkGCLoQQPkGCLoQQPkGCLoQQvgD4/xEEaKDu988pAAAAAElFTkSuQmCC;" vertex="1" parent="upza0JuViuWNQ2w0Z_TN-43">
          <mxGeometry x="20.99760027425437" y="8.176" width="154.00239972574562" height="117.98651582676266" as="geometry" />
        </mxCell>
        <mxCell id="upza0JuViuWNQ2w0Z_TN-36" value="BFS" style="text;html=1;align=center;verticalAlign=middle;whiteSpace=wrap;rounded=1;fillColor=#d5e8d4;strokeColor=#82b366;" vertex="1" parent="upza0JuViuWNQ2w0Z_TN-48">
          <mxGeometry x="19" width="59.99314364072677" height="35.040000000000006" as="geometry" />
        </mxCell>
        <mxCell id="upza0JuViuWNQ2w0Z_TN-39" value="PreOrder" style="text;html=1;align=center;verticalAlign=middle;whiteSpace=wrap;rounded=1;fillColor=#d5e8d4;strokeColor=#82b366;" vertex="1" parent="1">
          <mxGeometry x="340" y="862" width="60" height="30" as="geometry" />
        </mxCell>
        <mxCell id="upza0JuViuWNQ2w0Z_TN-49" value="BFS" style="text;html=1;align=center;verticalAlign=middle;whiteSpace=wrap;rounded=1;fillColor=#d5e8d4;strokeColor=#82b366;" vertex="1" parent="1">
          <mxGeometry x="44" y="883" width="59.99314364072677" height="35.040000000000006" as="geometry" />
        </mxCell>
        <mxCell id="upza0JuViuWNQ2w0Z_TN-51" value="" style="group" vertex="1" connectable="0" parent="1">
          <mxGeometry x="592" y="904" width="164.65999999999997" height="169" as="geometry" />
        </mxCell>
        <mxCell id="upza0JuViuWNQ2w0Z_TN-47" value="" style="shape=image;verticalLabelPosition=bottom;labelBackgroundColor=default;verticalAlign=top;aspect=fixed;imageAspect=0;image=data:image/png,iVBORw0KGgoAAAANSUhEUgAAATYAAAEsCAYAAABJ8Z9UAAAAAXNSR0IArs4c6QAAAARnQU1BAACxjwv8YQUAAAAJcEhZcwAADsMAAA7DAcdvqGQAADjYSURBVHhe7Z0LeFTlmcdfIIRwSSBAgEAol0CAcA8oEJTLbgu4itKi28pGiouuiyx9iuxurWsNuLsUdwvsI0UfrawWI7VLaWmpW4i6DWoIIgSBEDAhGCAQIUAg4ZZA4n7/b86XnJnMJJPLTMjh/+M5zJlzn8mc37zv+31nTquvFWKjsrJSbt26pQdCCGmJuIkNMisvL7eeEUJIy6S19Sg3b96k1AghjkCLDZEaxEYIIU6gNWpqjNQIIU6iNRsJCCFOg2IjhDiOqsYDQghxChQbIcRxUGyEEMdBsRFCHAfFRghxHBQbIcRxUGyEEMdBsRFCHAfFRghxHBQbIcRxUGyEEMdBsRFCHAfFRghxHBQbIcRxUGyEEMdBsRFCHEerq1evut1+L9AUFBTIb3/7Wz1gPCYmRk+fMGGCfOc739GPhBDSGIImNkjs2Wefld27d+vnRmh4NNMAnqekpFTNJ4SQ+hKUVPTTTz+VadOmaYFNnDhR3nnnHUlLS9MDJHbs2DE9jnkQYFJSkl7HeeRJylOJMu7BFZJWYk0ihDQ5ARcbRPU3f/M3evwHP/iBFplJN7ds2SIvv/yyHjeRGpbBOj/60Y/0Y92kyorBg2WwxzBu+l/L4tXbJK/MWowQcscQ8FQU0RciNURpnvUzRHEA0ZodCA9iQwQH2dUOxLZYUsbMkKRRPaxpZXJuf5qkHiqSiGFPy89/t1QmtbFmBYGS9A2y/M3N0vmvt0vyDGsiISRoBDRiQzpp0s/6NArMnTtXr4N1/U5J4x+S5J8kW8NKWf/bP8vvl00SOfKK/Pc7/kR+TUfRkZ2ybWee9YwQEmwCKja0fIJVq1bpx/pg1jHbqD/tJP7JJJmpxtLysl2TCCF3BAGP2EBDWjjNOo1qRFDpZztrtBqrJpecaj23421enmx4TE17bIPkVRRI6urF8lCiq46XOPNJWfEnWzSYs0Hmq+mzXsrQT1MWu5YbPHiF2jKwtlX1HNi2X5Ytm5+fL9PvxjKJ8tA/pUi2rhGWyP6Nz8n86eP09sZNn+++XztFGZLy/JMyyzpG1BqfeSNDiiqs+YTcAQRUbCj+I6WsC1+NBP6sWysF5wRbjukY7nreKEok7cXFsj6nhzy4bI2s/NEjMqg0TVJ+8ISsSrcW6TVN/nbtGkn+brx+Ou3v18ga9XzN2gfFNaU2CiTlqcWyTabK0y8ky9N/ESUFW1fIY89vlow3/kGeeKdIxj65XNaseFoSQpW87Ps1FCsxJ82XtellkvC3K9V+k2Xh+DDZ/dJ8eezFVPUKCLkzCHiraG2gQy6khgYG0zpqB/P8axn1QkWRpP4iRdIiJ0nSnEnWxEaw+xXZLIvl7deULObOlkeeWCkbX3laxqqIa/PWbS5pRMTKtAdmy6T+nfUqMSNny2z1fPYDY6XOmHV3iuRNXC8b/22hPPJAkix97W1ZPidCSraqSO317rL83V/I0nlqW/OWyi9esvabao8slRif/7Gk9Fgqb2/fKCufeETtN0me/s+N8saySZK36afyiqcICXEoARUbIq7axISuHS+99JIeh9jQEmoH6/qdxmb/Xlb86wpreEbmf3OWLH6/hzqxfy4L46xlGsVsWbxshkRYzzRjpsmkYSqWKzilI8PGoWQ5zx7XRcjUyVP1WPy8x2R2pB51YfZ7/JTSm8WhP8gflOeSHnta4j3y7/g5M2SGOsLMQ6w1kjuDgIqtT58+Wk611cnQAmr6r6GbhxGhWcfv1tTPUyVlY4o1bJNT/RbKxg82ytKpbipqOOMHSWyNTUVIBIKzvUWNF5uX7Ud0cEV+w4eM1Y/VWPu1UXTosOxXcWN1Xc823Ouq6e0vbLx+CWkJBFRsSDXBunXr9KMvEJVBbLgCwURoZh2zjTqZt15yc3Ml92iWbF/1iERkr5V/eHqDZDdV0TyknZeGiCaklu2386MPXsm1UvV/vDzyE1PX8zLMrrvSR4gTCKjYEG2Z/miIxvwFyzak/5umTTuJnbtS1iyaJJL+iqx6885Iv1zyK5B2Maau52UYX//WaUJaIgFvPEB/NERhiMC8NRB4Yq46AEuWLNGPDSH28WR5erJIxuurZMMRa6ImXNr1Uw8nvNTFcmw1q0bgT4TV1MTExUuMSkUzD+63phBy5xJwsUFq5rIoiA2XUXmruaG2htZRSA3reLsEq37EysIfLZRJxRnyyksbbMIaLsNRskrfKX9wE16JpG5MEVcPtMYR0ydWP16+FsQOFhOnysyBItmb1nqIXIEW4jc3N0EDByEtg4CLDRi5mVZSXBQPwWGAzAYNGlT16x9m2cZJzWLY07J08VgpUSnpijeN2iJk6n1JSnsZsnbhfHnujc2ybcsGee6xWbKmzTRpkks742NlmnrY9uqP5ZUt2yTlX18R96thA0CbSfL0siSJV69r1fcfkif/dYNs/qPa93qrhfj/SoS/B0DuFIIiNmCEhQve0RKK55CckRkaD8zPGeF5UzF2yVJZOLBEMl5dIylWyBLxF8nyxstJMi38mGx+6Tl5ZvVmKYpbLm+8MEnMZfSNIiZJktX2J5XvlrXPPiOvqOwwoA0PFhEzkuV/3l0jSaNEjm1bJc8tfUbW/iZP2k1eKhvXLFQyJ+TOIOi/oEsIIYEmaBEbIYQEC4qNEOI4KDZCiOOg2AghjoNiI4Q4DoqNEOI4KDZCiOOg2AghjoNiI4Q4DoqNEOI4KDZCiOOg2AghjoNiI4Q4DoqNEOI4KDZCiOOg2AghjoNiI4Q4DoqNEOI4KDZCiOOg2AghjoNiI4Q4DoqNEOI4KDZCiOOg2AghjoNiI4Q4DoqNEOI4KDZCiOOg2AghjoNiI4Q4DoqNEOI4Wl29evVrazyApMqKwYslxXrmi6T1uZI8w3pCCCENJDgRW4VImTVKCCGBJjgRW84GmX//KsnA+JgZkjSqh57sSfycZHlkpPWEEEIaSNDFNnbZ7+V//j7eNZ0QQgJAcFLRggI5bI2GhbSzxgghJDAER2y3REqs0fAOEdYYIYQEhqCkoiVbn5Fx/7RNjzdJy+f+FHnhdzkS9+0XZU7Ie/L2nz6VwitqemikjHroSXl4ZCeR85nymy0fyMHTmCHSqd9kmfPdmRKnZtkpOvSebH3/gJy6dEM/D+kQJXH3Jcn3Rkfq54SQlkdQIrai8+etMZGUxYNl8GDXkDjzIXny+Q2SerxhbabXs1Pk5feOS9T4+2VmYpxE3iqWg5tfkd8fypSU17fK8bDRMvOBmTI5tpNcOZEuKRt3SrG1LihMXSfrNn8qRaEDZfKM++X+aRMkOrRICgtdkiOEtEyCErHlvTFfZr2k20R9ECszVqyR9fP8bFSwIjZRQprzwwWSYKKwvN/Lf/xynyBG6zR+gfzzgwNd09WU9A3/ITtORMrkRUtlZjSmHZffr3pL9oVOkEXP3C96kuaWXCm5JZ0iwqznhJCWRlAitrLwWEmanyRJTz4rK9cmy1I1PntqrERZ85WRJDX5GVmVbj31k7BRU6qlBmJHypAOGOmrIjAjNdBJxg3rqx6Lpegr15Qqyq9LaaU1rgmh1Ahp4QRFbPHfTZbkn6jhnxfKIw8kydNqfM0b22XXB2tkdpV/8mTDphQpsp75Q+8+dnmB9hIGJ3XpLQM93BTWvr01Zhgod49Rar12UFL+K0V2HCiUG26CI4S0VILTKuqLfrNlzUtPy1jrqaTmyX5r1B9CfB196xBrpHaiZy2SJQ/ES+S1HEnf8qqsfHGtpPxfjk5lCSEtl+YVGxgzXIZbo4jaTuVYo0EhRKLu/p4sff4FWTJ3ssRFFEtOWoq8vDnbmk8IaYk0v9jcCJd2zdLNTQlu9ExJ+uEimdBV5MbhTDlozSGEtDyaX2w7MyXNGpV+fSW2lzUecK7IFdNr2NA6UrqEq8eQMKU6QkhLJQhiy5DNb2RIUYX11EbZ8c3yzMoNUmA9H/vtB2WSNR54cmTrz16Q/3jtXdnxyafy6Z4P5b1fvCw7TohEjZ8svJqVkJZLEMRWKtkvzZfEex+Sxc+vkg1btinRrZLnFj8k02c+J9uOW4sNTJIn/O3H1iQMkPjR0dL2Qrakp74n7/1xpxwoDZdRDyyRRbOqe7URQloeQeigW/ePTEYMe0SWr1sps/tZEwghpBEEQWwlkr0lRd740w7Jzs6WPNNRLSpW4uPjZeacxbLwvlhp18aaTgghjSQ4v8dGCCFB5Dbr7kEIIY2HYiOEOA6KjRDiOCg2QojjoNgIIY6DYiOEOA6KjRDiOCg2QojjoNgIIY6DYiOEOI7bTmyZxZnWGCGENIxmF9t7Z95zk9k/7F3s9nxD3hvWGCGE+Eezi+3z4v3y71n/Zj1zB5L73zP/az0jhBD/aHax/e3AhfrRMzIrvF6oI7d/GfG8NYUQQvzjtvjZIkgMRLeP1jJLiExwm0ZIrexPkRd+57q9Wdy3X5Skqvs5ktrJlJQXtoo48D1rFrEhxRwbOVYWxj5hTWkiUlfI4MU1f6s3aX2uJM+wntzG5Gd/X+adruX+g2FPyaZ7F0h/jF/fK1uyXpMtl7MkX/0FO7XuL4nRy2TJ0PHSzY84/ELhJnn9+CbZde2CXFDPu7XpLw/H/0q+7+VmOhcKX5OfHn5LogdnyDLPXzkuSZXVB38mO66Xqvg/TmbG/lSW9e9tzXSRdfBReebaPPntxNliv3F/k6ClViSTFy2VmfwO1BRuXyuv7oqSOS8mSYI1zTtNJbZC2fFfr0r6ReupoetkWfTDmdIcf5agpKKIvpBq4tGkmBuObwhQw8Akefa9XMnNdQ3bfzRJUhYPlhWp1uwmBz993jTbDw3pLnFte9cY+rdyze/dKc4ltcpdsi5jiay+lCWl7RJlbrdEGSL5knp6iSzZl1bnDZ9zjjwpC7LWybZrpRLeQa3fZbxEf50v58usBQzXlDz3PCqPZr0lu7x9/eE49iZLRuu58tO7fynPdRPZkbtMfmm/nf+F1+S1s93lqeEBkJoiM0t9EXSNl1GUWq1kvv2CvPB20/c4gERfeOFVyR66SF588UXbMEfirGWag6CIzYgMkRrYcs9v9aMvuWG5fz/s3qCA5eZ+/B23FlN/iH0iWZ6dKJKSHjCzNRm941bLW9O2uA9Tlskk/VcaIY8OStTLyZk02Ya7foUtkNWTV8uyhNWyLvE5QVCaf+lN2XZZL+Wdc+vkZwVZcqHNDFk5eadswvp3rZPX/3KnLImxllGcyVkis9OVPC/nW1O8oI8jTubGPyXjOsfJtFGPy0wl2L1FZp0zsuWLTSIxy2QubmtIgkL0rKVKLHVFa02AipZf3SUqWn5Rlta4AVKCJDVTtAaCIjbUzHTd7EZhnXIz3T88u4FgOay//2LTf+vczpw59istsd7dH6+WQ0WZKyprN0DizF+w/RAZEGqN+6RUUr/cJFkSLo8OWSHTOliTNaESarvvRLnaZ3THh2W5isQeD7MmeqKPo79Ed7Geq3S4t23ZK3mr5bWKebJkiI4ziaNQaezvciQy8Xu3ZQkg4GLT6acS0r8Mf95vuXliGhIaRp4U7FYJat9Y63k1qcmDZbBKI81QM510pZn2ZQYnVy/kWt91By6ku+7z82TDY9Y0a5j/Rp41z08qs+SPZ/YqediiNdBrusyFhC6/I788V65GyiX/2JuyQ4126vigTO2sl6pJWZrswk2iW8+UxD6uSb7oP0xFcYnLZEbnumx5Ri6UWqOV+XLmhnpE6nw9Vdbln5GHhzxVLd96gfqPSp9sw9rtts9B4Q5Zq6ZtzVXjF9PlVSzzXzvE+ycFNSDvqZhO0dzWs5b1tV9g7btqGY/96vQM06qWWys7rAVcqZvvde3UPDaFtU3PY7Knmq59pKh3UIEapFpev0+5W639WvNsuB9X9fH6ZH+25Khkc+pteqvKgIvtv5W00E/tf1UEVpfckH7+yUu/NazbUFKTlXgmPivJT9jF5pLO4uPPynarFpe7PqlGLS7vDaWs9dX1utz3npVJmxZXCWrGCkxfL0lqHA0UepkVSAix/VmyauB6t3VrqrV2ruS/I7+5qWQV8aDMtKdy7abJsomrZUFYvrx2YKokvj9V5n2ZJqUdl8jrE+eKe+nehkordZLYPlra5a+UJR9OUutOkhkfPirLsyHQegLBts6SLdlbJOdqvuzLUnKV8TItpptkZL8sh7otkb/rYS1bH/TJuFWKEm11m0WTRXa9Wi2n6JmyVE2fM1iNo0iNZRqd+lhF8G5z3PYbZc3V4NheTZeob1vzX1wkk0WJtYagsuXdX4t8Ty/jatiAPFxFfdu63azFvZAwIk5JO1sO2jf8VZEUq4fiowdt+8uUbCWuuBFeks+xSXpf+n0abF6Xe5qa87sX5F35njUPyxZL+qs15WfHVduMarZUsy4CLrYxkWO1yNDR1pvcID6DZ/pp2F+83xrzhwxZdX91lLR40yR59icL3aWSmiKrdntMn5Es6+epyOvtDUpLLmKf2Ojemhq3UJLUMhmn6oq8XFFi0mTbympdd7nWxRn1rYmGgHCZHeNReK/MkV/t/7G8daNc4jrOkLndZsuMsFC5cHWdrDy4y7egrp9X37KKG5tkZW6aMuZsmd2xt7RTkRYaHn6cXUuLrDeUYJeMXiJx11+WBbuUHC92l8dHrpS5pa/LusuJKgUdIhkHvi8PK3lCvgs+VQKstNb1iZLLTqQ4i9zrNhDZt9WJnruz7miiwRRK0UUPQaj9JlUdh+vYIIjqVsRomfndyRKposYP7R9TtZ3477qLtrBIKWlwvE0qat3HapHx2HgVExVL9gGbwpRQIgfHqf0VVYvNip7iG9qyqV6P/b1O+KZ6PWqL2fU57W4zAi62+3vfLwsHLvQpN8isaXFvFc19b6rshOjsKWS6isTmJclCj2ab2L6TRHYXVInNhXtKuXiTmnT8lMcynsRKDBosFs+XDfV0RRWXUiXtmnoMmS3TPdLGnMPJsu5aufSPWi1vJa6QZQnPyfLJv5CnwkSyipbLm6etBX1R0U1mJ6hUccJz8uPELfKrwdN0lLevcJvscy3hN6Hd58nyaTtl17cyZNu01fJojxPyes4OGTlwiUR/+YwsO6e+M4b/SjYNf1jCS34myw/ttdb0QeFByb4Yqe/SXwMvJ3rTEi1RXRHB+EjFrGOb/E2PyCg6Skd1RWftK6lpHi8hOipSp4M1UlufJEi8irSKi8zyiMzUe/PNeLX1avEUni1qVPRUI9Lz+npaFgEXG8SF/mqecgtax1sVKW1UaaZsSrEkkyenjqsHlVIaWZlh1ksZWKAKVw1tluycur1KlIjq6iZWFr6NZaujx/rW13JO7dCSies2XUa4JlmolE+3VPaWab1tdbfWcTK1G0xdKjuLdrmmedKmnSvyC39YZttSoE79Z6qvA0XlQcm5pCc1mJwj/ym/CVsiS/oXquPIkd5RT8nf9e4v/XsvkQVR4ZJ/MUOyrGW9YqVazYOKoH5oUjFXvclNQvrYqudVD1tdkbAdL6LRrZUq6ixGSo31aqmvGXQ6mptt1ctUZKa7triEl5OFqYVy8GixRA4d1WCxNQQtaXvUeJsRULFBaqiboZuGXW6opzV9pFYL/WNcJ64mVvoOVA/zbPUvtyFZd5tAZ1+dxqrob2O9UshqXDU4NSixZrw0yy1qrB0lr0uQV7iM6+6uNU0dXapLKtCg4IXIITIejzcvyHk9wZMICW1rjTaE0i3ylvqkPz4UqfMZOa8OIzq0uuLXLVSderfO+9i3Ra8olQY1NSoSq6WW5UnCY1YNzEjI1PX0samIbZE132Oo2eXBC1bNS/fz0o0etdeyXPt0RWc6DbUEpoV3QYmltgg3gESPjr+t09WAig3pZnRYtJaZkRum+YtZ1l5369WQSC+/QOyxmE45N2WIv5qpJlUykIrWlxnJuqNw3SmsxeU02YXWRZkm42u0BPSXuHC0JJyRtNO7pEphlTmy84IrbhjfeaR+rEHHaTIJIduN38iWE6YpE40UO1zvT9g4GddRT2oApZJ6+GdSGv0v8qju/tFdwkPU1FvVFb8L5cp6YQNcnYx9odMgH+mmriU14iSGCKxRF66iu0+UhBYlKs2a9Wo7tnqTIEmLUMsqkqpM0xvRoyRepcdFZ3e40lDz2iE8NCwcUFFkc3RQjp4pUxE1/q4OMTcTARUb0s2fj1/vJjd/O9iiNgc8lzfT/SZng8zHZVa2mlrsE0mSJCmy+LHqhgKNitKqWkV1lJchOz+qXkK3sFrj1Vj1NLcOwKmywi06y5O0nUodA/tWN1bUwpXzh1y1rvCR4k1R44Y8p7t75J9fJvM+WSarM5PlH3d+X15TMuzU/ilZMNAVnuR/8aTMfn+SLMg0VyN0k9lxT8k4uSBbch6QBbuSZXn6A/JobprSZG9ZEGtdrtUAruSvlNdvzJOnhpnC5QhJ7NZfcs7+p7x+Jl/yz6yTt4pKZVrPGXXsQ53wVqRUo3tHI/pNuVoY0+Vd2zYz3/ZMITMlxa1LiCvNk24mrUyQv1Siw7GluEUqhbLj7brTysy33SVQeCBbabJmLc6daBk1VO3zaLYU2QWmhacke7TIrzTUVd+zUtomIuGxRTK5a45s9dY9BH8vP1LtQBGUa0XRDw0toJCbvyBtRYRn0lkAqaHhwSf1ulbU6pKx23oKJj4r29+2tZR6bA/bmZRudRPxtRxS3BUiK6z+bVXo6TUOwiv7Pp8hS5QE4nr+Qt4a5SUVBbjc6bD7taLjuz8ufzdCicPqaAuxLTmZJd26/VR+njCtqmW1/HKqrMt6WdL0daKh0r/DTFkw4h999FnLl199/KisU9KcG+flWlFQliar038moUP/KEvsEWblGUndt0xeV2n1mVbdJDHqOVk+OtG/S6twYryark78arxd4I7+W1sv+HdNoqu7RfUWsb34LPv6rmsn3WSHLhKPeWQZ+vpUdyXaj03v52h8jWPSx+oWIcb5cT2nwnovxKOl2Lwez/eluluJfdv212b265pW81pR13R0t/ErvfbyfoAaLdtBJGgXwddHbkhBEekBrIOoDVEffsKoPqksIeTOJOCtogZ7WlobmG+khqsRTCpKqRFC/CXoP1uEyA3dPdAyagdC+6vef1X1U0YQGq5YwLSxXV3XmhJCiD806w9NmutIgae4IDbKjBDSEJpVbIQQEgiCVmMjhJBgQbERQhwHxUYIcRwUGyHEcVBshBDHQbERQhwHxUYIcRwUGyHEcVBshBDHQbERQhwHxUYIcRytQ0JCrFFCCHEGFBshxHG0VkhoqLefhCaEkJaJrrEhamvbtjH3XSOEkNuHqsYDiI2RGyHECbT6WmGNayorK+XWrVt6IISQlkgNsRkguIqKCv2IwcdihBBy2+FTbIQQ0lJhB11CiOOg2AghjoNiI4Q4DoqNEOI4KDZCiOOg2AghjoNiI4Q4DoqNEOI4KDZCiOOg2AghjoNiI4Q4DoqNEOI4KDZCiOOg2AghjoNiI4Q4DoqNEOI4KDZCiOOg2AghjoNiI4Q4DoqNEOI4KDZCiOOg2AghjoNiI4Q4DoqNEOI4KDZCiOOg2AghjoNiI4Q4DoqNEOI4KDZCiOOg2AghjoNiI4Q4DoqNEOI4KDZCiOOg2AghjoNiI4Q4DoqNEOI4KDZCiOOg2AghjoNiI4Q4DoqNEOI4KDZCiOMIuti2bt0qZ8+e1ePvv/++HgCmYd6VK1f0c0IIaShBFRvkBXEZsV29elUPwMwzzwkhpKG0+lphjQeU48ePy8GDB7W8OnXqJB07dtQyM+MQGub17NlTYmNjZeDAgdaahBBSP4IiNkht165dWmJ1YVLRb33rW1pydXHt2jX56KOP5Pz583LXXXfJkCFDrDm+wfF89tln0rlzZ5kyZYp06NDBmkMIcQIBFZtJLRGpITpLSkqy5vgG66DWBqmNGjVKR3O1CdEutj59+sjkyZMlNDTUmluT8vJySU9Pl9OnT0v37t0pNkIcSEBrbB988IFuHDAppwHyQtRkH0zdzSyH51gX2/AHiPDSpUty7tw5a4p3ML+kpERHa4QQZxJQsSHiwmCXGiSGiAypqX0wAjRgHaw7adIka0rttGvXTq9TUFAglZWV1lR3MB3zIyIipGvXrtZUQojTaLNcYY03OZGRkTqSOnXqlNy8eVOGDh0qxcXF+rmRHhoKICRIrVevXnodpK54TExMdJOiN7DdEydOSHh4uF7n5MmT0q1bN6/rIVo7cuSIbpjAetevX5d+/fpJ27ZtrSVEbt26Jbm5ubJnzx759NNP9TgivC5duriluNnZ2VrIEOSZM2ckIyNDr4PXAXGaxhFMw/DFF19IWVmZTn/btGljbaWar776Svbu3Sv79u2TzMxM+fLLL3Wajf3ajw/TPvzwQ7l48aJ+vagV4jjwWrCf0tJSnZJ7AqGnpqbqfeMYCHEyAY3YcLLb+63ZgfDM4E1CqM1hXWzDX3BCh4SE6PqZNzA9LCxMn9gQgSeI6D7//HPJysrSy6BeB/FCiJAHpOHJsWPHtKgh7fj4eJ1mQzaITCEpiAmNGlFRUXL48GG9bTvYJ6bt3LlTi2/48OFa6D169NDb/vjjj73uF+sdOHBA7weSbt++vT5mCM9blxm8Bsg2OjramkKIcwmo2HAiNRTTOmoe/QESgUAgUkRZdvDcRIWI7rwBkSD6uueee+Tuu++WAQMGyJgxY2TixIlahIje7EA4kAqWHzRokCQkJMjo0aP1dMgNssM0RIjYXu/evfUx2MWDSA3RHASKlmCsg+WRgmPAshCiZ3qNyBfTHnzwQd0oM2LECC3Dy5cvy4ULF6ylXGAbEBsiWUSThDidgNfY5syZo6MyT3CCezYc2ME6WBcnu7+0bt1ay+jGjRtSWFhoTXWBVAxpJlLPVq1aWVOrQWspIjqIz/N4kW5CCpAjlrPTt29ftxQVURPECcHaU0ITKSIqM9EixITUGa2ycXFx+vjtYH1EWIjCPAWP1zJs2DA3UWFZPIcs7UBqkBvESsidQEDFBmGhXmaPUEwUh+mm4SAvL09Ps0d4WAfLQHz1AQKCQBB5GQmhLgVpQTaI6ryB/WHIycmRlJQUt+Hdd9+V/Px8LUwIxQCBeUZ/SIUhKLwWNGjYwTw7kByiO2zDW5cTbAfHi+P3FBsE5rlvpPSou9nTUcgTfwfIGREdIXcCARUbWjohJ/tJiWgIURjqSPbBs0Mu1sG6GOoD5BETE6NPbhO14cRGtIXpnlGRoaKiQg+DBw/WqaW3AemeZx85b9Ef8DXdDroQYp/Ypqf0DBCep1ABamr2RgWA14bXCKkhSgN4H/FeQPa19e8jxEkEVGwmlTTCMoLDc9SR7IO3ZbAutlFfkE6inxrSPEgBaWhdEQtEhAFy6N+/v9cB0vAloIaCfSKy9BSXAVEd5OavlEwdDTJHtIaOy5Cnt5ZSQpxKQMWG1AiCQq0NwkIrp2ea5zlgGYBiupFdfUE0g9oXTmqksohYUFurTQ6QB9ZDagiZBAMcD1JW7BPppicQExoCcFzeUlVvYFmIHY0LaEhASo5ozVcKTogTCajYDDh5kW4aURnhGTBuunzgEcsiimsMKKSjYI/+ZpACTvbagBAggKKioqqanx1EfZBFU4LoDwI2tT2IzA7qgkincez1ac1EZIooEBErrsbA+r5ScEKcSFA+7ZAVRIXIDWAcaSamY8C4ERm6ODRWagAigDCRiuLE9ifiQZcNpHKHDh3S15+i+weEgw6x6DSLlK6pgdjQkguZoiZ59OhRHWXu3r1bd7jF8aBvW33AOki90eCBBoyGRr6EtFSC+jVuWj3NiYZH+zgkZ28ZbSyoKyEK87e+hFZGXBSPrheIziAXSA699dEPDdtqahBJoa/bhAkT9H5MazHSZzRWIHqtb9EfkSBkjhQXkvM3jSXEKQTt99hIcEGnX6Th9hIAIXcKLLw4ENTX0GiAdBQDIXcaFJsDgdSQyqJ+59nXjZA7AaaiDgHdRdAAgX5xeESkhmtcKTZyJ8KIzUEgUkNtDQ0H+EURSo3cqTBiI4Q4DkZshBDHQbERQhwHxUYIcRwUGyHEcVBshBDHQbERQhwHxUYIcRwUGyHEcVBshBDHQbERQhwHxUYIcRwUGyHEcVBshBDHQbERQhwHxUYIcRwUGyHEcVBshBDHQbERQhwHxUYIcRwUGyHEcVBshBDHQbERQhwHxUYIcRwUGyHEcVBshBDHEdQ7wX/11VeSm5sr58+fl6tXr0rHjh2le/fuMnjwYOnVq5e1lP8UFxdLXl6enDt3TkpLS+XmzZt6m5GRkRIXFyfR0dHSqlUra2l3bt26JSdPnpQTJ07IpUuX9PGEhoZK586dpW/fvjJo0CD9nBDS8giK2CCRzz//XEsI8vGkbdu2EhsbK2PGjJGQkBBrau1Ajunp6Vpo3sA2IaexY8dK69bugenZs2f18RQVFVlTagLRTpgwQcLDw60phJCWQlDElp2dLZmZmXocEVW/fv2ka9eucvHiRR0xIVoCCQkJEh8fr8frAmLbtWuX3l6PHj20gEpKSqSwsLBKWJAbxIbozY45HsxHxIgoDVy5ckVLz8gXYrz77rtriNEbeB3Yd7t27fRrwGNtlJeXy5EjR+T69es6ssR7Yjh69KiOIu3gGLp06SLf+MY3JCwszJpKCPFGm+UKazwgQFqHDh2Sa9eu6RNy3LhxMmzYMH2S4oRu3769TiUR1UEomOZPClhZWSk9e/aUkSNH6kdsD48DBw6UsrIyuXDhgl4G8urdu7ebnCA+pKj33HOPlhDmY+jfv7906NBBz8fxYH1IE8dYF5cvX9ZirKio0K+zU6dO1hzvYB+QM4CUcfwGTIf4IFwcD/aPY0F0ivQbqba/kS0hdyIBbzxARALRAJyokI8dPDcRE5bD8v4AcUA6nkBgiGogBADReAalkNiUKVO0IDzp06ePjiYBpGyiSX9o06aNFinEhP36AvOwDJb3FQ1i3oABA3S0iQFpOqSP98gIkRDinYCLDZGRKeB7O5HxHNOBfdnGgO2ZbeLRc5uIjnxFPPbjQQSJSKk+IDVGdOqr9gcwD8tArPV5vVgex1abNAkhQRAb0ixTgEe65lk7QmqF6cC+bGNArcuIJSoqql5pG0RmxIFj8ScNtWPkg2PwVr7ENMxDZGciVX+BDHF8kCchxDcBFxvqZWjxhCCQ1h08eFDXv3CC4/HAgQN6OuZjuYZ2scD20Hiwb98+XXwHSEmRztUHdElBowaA2CIiIvS4v6C+hnVQb/OWxmIa5pmamj/RF2SG9PPMmTNanCZVJoR4J2j92AoKCnRLJOTjCUSAFtGYmBhrin8ggvnoo49q1JwgJPSNQ22qPtEaosc9e/bowr6vFlVfoFUUjSBDhgzRIsrJydHRoqdYv/zySy30oUOH6noiusD40yqKlBXbQwOHr7ocIcRFUM4QuBMnsa8TEtMRydS3nuUNCAkDpIfIyF8gm927d1d1FYFA0MLaEJBiQq6Qk2k4ATdu3NDyxPy6Wk3xniCqQ3SGAY0hECciXn8bWAi5Uwl4dw/ICpEaUk6c2Ig6EAkhQsM4CvQmzcI4Osb6W1DHcjjhEemhPxpqT9gGhIJtnj59Ws+3d6XwBq5AQKRmoiRIbfz48VqQ/oI6IeSM40A6imPDMaA/m5EY0lwsZ/qiQb4QHSTo2d0D3U0Q/aHVuFu3bvoR24F4IWxMY+RGiHcCfmZAWPn5+XoclypNnz5dp2c4mSGQe++9V5/oAGkZUjp/QZoJqWE76I82ceJEeeCBB7SUTE0PnXG9pb8A0s3KytKRGhobIDKkiNhOYy+nQlSGYzB94iBc1O4gWrz2hgD5YUDExqiNEN8EXGxoAUSkBiA2T2HgOcQEqeDkR1TTmJQUkRLqYqhbAaSYnjU4gH3s379fDh8+rDvDItpD52EMTdH5Fa8HKSSiMkSCiNQgI0R0pjtJQ8D7hdS+KdJ2QpxKQMUGUeHENvgSBqIYpGYAkmlsPy2kaPauFEasBpMe45ImHCOioMTERH0Jlb9psD8g1YaIUBvDgNfY2BZNvD84RqahhPgmoGcHTkB7dIKUzBuQn6d8GgPEZU8/jTQNaKE1KS/kM3ny5BpXRDQFqK9BmkhzcTyoizUmxUXkhwEpLgZCiHcCKjZEaPYIBUV6T4Hh+fHjx3XkBLC8KdqjSJ6WliZbtmyp6psGsOypU6eq1vEEXSpQ2wOI3OyFecgVUkNaCOGhpubt0qqmAuJEdGVSU39B1IrXgW4jGHC9Ld4DbAspfWPSWUKcTsD7sUFOGRkZ+lczACSDmhpa+FDch6BMDQwnPqInk0aiawMGgPUwDxKC0PDLHijGoxUV8oBEERWhpme6bEAmuEje/oshaIXEzx0h8oHYcN1obVEU9osUtS7s/djsnXrx9kJIOD70rbOD4/S3HxuEhmPhr3sQUjdB6aALmezdu7dKbt5AmoafCMKjoS6xQYq+gKwgNAz2ehQkWtvvuHmChggcFyGk5RC0Kw+QAppfrEWkhVQQdSJEZ0it0BnWpKAGRHsQIlo2hw8frtNGAyKaY8eOaVEhUkNRHeujKwWiMERZ3jrBUmyEOJ+giY0QQoIF+wwQQhwHxUYIcRwUGyHEcVBshBDHQbERQhwHxUYIcRwUGyHEcVBshBDHQbERQhwHxUYIcRy3ndiKbrh+mYMQQhpKs4vtxJV8N5l99NVOt+fZl7KtMUII8Y9mF1vRjfOy9/xe65k7kNyJK/7f3IUQQkCziy2+i+tHID0js2u3runIbXz38dYUQgjxj9viZ4sgMdAhpIOWWVRYlNs0QmoDv/WHG/PgF5lxt7Fhw4Y1yZ3G7gTMT+7bf+vQCTSL2JBidlfyMtFaU4Efsvzoo4+sZ9VMmTKl6t6ltztfXf9KdhftlopK9xvftGkdIhOjJkqv9r2sKS4KrhboaPfKrVL9M+RtW4dKQvcEiekQYy3hm7KKMtlzfo96vCFTek2VULWu4cqtK5JWmKbneTK2W4IMDHfdJR/L7Tu/Vy6UXZDWrdrIgE4DZETkCGmjxg1HLx+Vk1dOyL09p0j7kKa9CY2RGn5k1GknZ0PBD69+8cUX+if48bP5tdFUYsMPyOJn+e3gvhyeP5UfLIKSiiL6wsmHR5NiHlHPA9EwgF/QnTVrliQlJekBd5yH7CC9QIA7bG3fvr3Jtl9eUS6VX1dqSbRr0656UNKxywIcuHhAielTLbUOIR31l8XX6h+2URtYJrckV1JP75Bz173/XDukV/l1hbRq1VpC7cehhpBWrmjolpLvZ0V75Kr6m06KSpRYJbvjpcclrzRPzweXyy/paUM6D21yqQFzhzP7T8qTmkB2+/bt049NCbb32Wef6UfcqBw3GzcDfs6/uQiK2IpunNMi26kiNXBfzF/pR19yQ0Tn2aCA5f5U8CctxfqAG6jgp8dxI+aWwK2vb6nIq1JJqrs80Hd21YD3DCm6oeBagXyphBHWJkymR/+FzOozS6aqqOvBbzwo/TpV3xjGk6u3rsp29T4eVFK8qfbli5uVN6VSCTCibbjM7DPT7Vi+0ckV/V4svyglN0tlqJJWdIdoLa/wtp3krE2WR1S01iW0i/Tt2NeaQgINIqS77rqrzmitsZSVlUlubq706NFD3zTJM/3Hudcc0RoIitiiwnpYdbOrdcrNdP/w7AaC5bB+fcXWUglXQvEFIrrjJXlaPPFdhktkaPXtA1upf56RnR1EayEqrY3rPERGRo60pvqmnRKnPUW1g+NooyI6UwfFcljeAPleKiuW4V3iVQTa7O1UpInB7SFx06Q+ffpYU24f2ixXWOMBAaknooT+nfrrtATDmWtn9PPBEYPlmEqJzluygvzMfNBPLdNRpVjYBpYDWMYeudi5fPmyjsxQT8Pd5QG+VXCLO3x7eX6D7dmzR/785z9X3Q0LobP9DvJIcz788EPZvXt31TJIe8wfEut/8sknejnUGOzzcSctzMNg1sU3Wl3foieunpDisovStV3XGvU0w+WblyXnco5KEUOVNIZL29buN8GpDcgnNjxWerbvqd5r9X5dL9RRH95ruxDPqSj7zLXT0lFFYL4iQNTXTl0t0NElorLyynKVduap42orPdSXWeaFfSq66ycxHeuu93mC2tnhw4f1yYMbXGPAzX26d+9uLeGqD+FOZagt4k5oWAY3qUYDgif4++BzgJTVHlngFojZ2dm6hIF1zTTcx9XsF3dXs6+Hz9SBAwd0+aG2+aj74fhw0yFz7J7r1nbM3o7NvC+41SP2ae7AhmXxfmAaPo/4vEE6WA/L4z67uJE4lsM+cd9afN7NrS+xLNbB8drn+wKv4/Tp0/qzjuO73Qi42FAHOlZyTI8juqhNbhCYeQRGbKgH2eVXH7Ht379fP44ZM6bqJsNGOviQ3HfffTJ27Fj9R0Qtzi43hNn4w917770yatQoffcrfNDwAYGgMA93w8KHBfUFLGekhtsD4i5c2L5ZFx8GfPBqA40HEBsGRKlfXP5Cp3wQB+pb4HzZed1o0ElJp1IqZNe5DMkqPqTfJ9TG8P74EyEVlxf7FJuZhy8lHAcaAArVc0SSVRGaEmuh+jui4QDHd/LqSX38QyKGyGklRTQ8jO06tt7RGuo1WVlZ+v3D3y0mJka/3ziRcMcyc0JDFEh1cNcz3OUMhWpvggD4bOCER9pkFxum4Y5n2BYkgL9lfn6+blmNjY3V+8aXFfaD9XBs+AzgeEaMGKHnYxqOzcgNUoB4ILOePXvq4zJSw+vCuFnXCMvbcWNbOB5zT1mAzxaK9HjE59SsDyFBTrjPLvaD9wnrQDo4Bhw/XicaCfC6zPYgNkzH+4B0EucOtgnx4tHX+4kvEgzYtjmG24mA5wdR6tscKSQ62uar9HJ8d5X7qxPPpKXe0lBPjNT8AbfVQzE/JSVFD/gQ4NZ99lv7YRr+mPbp+IPiVnuIEPChAbgnqb01FR9I3NwYH9jawPq4vSA+ZAasi+3XBdK7ru26qYiqlxYIUsevrhXKJ2c/kdKbrsKvq4GhQkrU86NKfKhrdQ7tLBVf39JfIoeU5BoLan2dlax6dYjWMkOKC9mmn0uvqqEh+rtL/T0BWlDzVHqMCLKjOm6IbZhKQY9cPiJbT26VLflb5P0zqVWvoTYQXeCEtLfU4eRBzQaSwQkVKHCC44bU5osRQJrm5MWxYT6+wAwDBgzQj551XCxnj9AhHIB74xow376MHSMWiBNfwgDj+ILG59ZsD4/o6lLXl6YvsC18No3wcXzYL+TYUgm42BAJ4APuS26QWVOCE8LeKoqbLOM+okgbDfgAQlCQjR3chxRCMmIDGN+5c2eVKHNycmos4wk+KIg2EC2aUN9fErolyPTo6XJPz3t0HRLjaE28rqLYk1fdbxAN2UzoPkE3Hnyz97dkZOQoadWqlY6GTdTbUOIi4tQ2vymTe0yWGX1myqyYWVp0typv6kYLA6Z9q/cMmdt/rm64QDeQw5cOS3R79QVw84rklR7TUXlij0Qt5L0qPUVrqi9qO0khG8gikCcc9oH9I330xBwbvrDsUR9Eg2gJnws7+AzYMXJEJmCkVBd4H3DPXESBAK8d4rG/D2ZbDY2cIDH7unht+AzjM26E2tIIuNggLvRX85QbuicEA8gLqSaiNEjGRFMQlJGVGTIzM621XECGv/71r/U3qhGlP1EXPhRTp07V8jTRI9KXhoCGgd4dXNHBRRUxAVdq10pHaaiVGdAyiSgKtS5Ec01J+zbt3fquYR/eQNeOMjVvSOchWrARbTvr1BTH1j98gFwpL9Xr+wInKVL95gJ/a0TqiPxRW0UXCSMOc2yo1WGeGXBTbwjPE3vUByCP0aNHawniSw/rItWsDdOqiEgN+0fECrFBeNgnpiGCxTY99xdIjAjNe3O7EVCxQWrotoFuGna5oWbT1JFabeAPjj88MNEUBGVkZR8Q7WF51BggQzzHB70h4A7y2OaUKVO0NO1RY31AegraWv3HkBq2bR2ioyekjJ60VtKrT4OCv5jjQB+71l4+OqjHoQ/boPBBuuW1vLJMHwfGAeRYIZVyw0unXwNOGFMQb0rqc9JDJugugbopPjcoqkMs5thQo7L31zKDP51cEQ2hloXl8cUHSaJhwxcmGkR0ZtJQvBYcI8YhN0w3NcBggWMIdPTcGAIqNnTzQGQGmRm5+Sr8e8Msa6+7oX5TX1A3QThvQMqJgjOm1wcsj/XqC+p06ChcVwoLcXhGWqaIjwita5grPeusoqDw0Ajdh+zkleqOwYXXCnUkhdpcbd1F/OFS+SVd3zNcr7iuI23Qua06iSxZ2Tly6Yh0Un9vtKKiE2+IklrF10pllhCxDUxHg5Av7CeyJ3j/EbE0tJaEaMszwqjtxIQo8AUImWG92o6tIfTr108X8T1TWDs4BkgLnxtEd0ZgOBYMOBakqfa6XTDAMSAlR626rqizOQio2HCCodOoXW7+9kNDbQ54Lm+m+wvST4T99poaLjUB6DFtFw2iNAzAfMOjdcuAFi3PmpmJAO2FY5yA+JY3mA8llsPyvkD0tafoU9l2apt8fPZj+eDMB/Lnwj/L9VvXpVeHXrqbBoBUhkYM1a2YB4sPqOXel+2nt8uh4oO67hanUj+kpCjU4z3/w8k/6O4b9QENEFgPDTw4hu0F23VrNmpqwyNHWEtVA6liH5iH40K6jO4qxWXFugEB8/NLv9RdQ2qTLk4YnPBIBc3lPgBiQW0KNVRfxfbagBAgKERHpm6EvwlOTDvo6oAIyIBxCBHRmv1k9oyyjh9XKXgdaRm2he0bsDwiLs9anCeQFr6YMRiBGeFhm5BtXRGpSR2bsuEFfwdfUSfeY5Rf7O9lMAnKtaIoZOMEgdz8BWkrIjyTzgJIrbZf+4CU/L1WFLJBlww0kxtwhUJiYmKVfDy3h+1AYPiG9bUcvuHRlI/ndgliOlLT2kBRPfNipq5Nua4VbaW7eCACGtZ5WI0o6fwNJW21fKmK3ACEMbZrgpYHgNg+OZuuryKY2GOi7ltmB/Ww/Rcyda3O81rRgxcP6gjtplVLwzWokOvoyNFV3U4MiBI//upjNb+nDO9SLT1Ea7jCIf/KCR39oYX8ru536+4ldYGTHl8k9i8enESQnh2cOP5eF2mWNYV4REuI/tC9w1zTiBMUJQgDoiLP6x09twPsx2aOHZ85+zHVtZ4vIAlcDwvsF/ib7Xm2IPt6T+yvzezX17WimI733p8fFPD2twJolGiuHyQI2kXw9ZEbUlCcaMD88CSiPkitPqksIeTOJKCpqB17WlobmG+khj5uJhWl1Agh/hL0ny1C5IYUBy2jdiA0pFzmp4wgNKSgmAahUWqEEH9p1h+ahOTQRQB4igtio8wIIQ2hWcVGCCGBIGg1NkIICRYUGyHEcVBshBDHQbERQhwHxUYIcRwUGyHEcVBshBDHQbERQhwHxUYIcRwUGyHEcVBshBDHQbERQhwHxUYIcRgi/w+NeE6p54y2SAAAAABJRU5ErkJggg==;" vertex="1" parent="upza0JuViuWNQ2w0Z_TN-51">
          <mxGeometry x="19.99000000000001" y="29" width="144.67" height="140" as="geometry" />
        </mxCell>
        <mxCell id="upza0JuViuWNQ2w0Z_TN-50" value="BFS" style="text;html=1;align=center;verticalAlign=middle;whiteSpace=wrap;rounded=1;fillColor=#d5e8d4;strokeColor=#82b366;" vertex="1" parent="upza0JuViuWNQ2w0Z_TN-51">
          <mxGeometry width="59.99314364072677" height="35.040000000000006" as="geometry" />
        </mxCell>
      </root>
    </mxGraphModel>
  </diagram>
</mxfile>
